<?xml version="1.0" encoding="utf-8"?>
<!-- Generator: Adobe Illustrator 23.0.1, SVG Export Plug-In . SVG Version: 6.00 Build 0)  -->
<svg version="1.1" id="Calque_1" xmlns="http://www.w3.org/2000/svg" xmlns:xlink="http://www.w3.org/1999/xlink" x="0px" y="0px"
	 viewBox="0 0 212.6 212.6" style="enable-background:new 0 0 212.6 212.6;" xml:space="preserve">
<style type="text/css">
	.st0{fill:#1D71B8;}
</style>
<g>
	<path class="st0" d="M93.64,106.51c16.67,4.51,33.49-5.01,37.94-21.46c4.41-16.32-5.26-33.25-21.5-37.63
		C93.56,42.97,76.8,52.6,72.35,69.1C67.99,85.28,77.6,102.18,93.64,106.51z M86.92,90.52c2.37-0.73,4.65-1.44,7.04-2.19
		c0.59,5.59,0.94,11.03,3.18,16.12C91.46,101.58,88.99,96.35,86.92,90.52z M93.75,77.98c0.03,2.68,0.06,5.3,0.09,7.89
		c-2.47,0.72-4.93,1.44-7.49,2.2c-0.79-3.35-1.14-6.78-1.07-10.38C88.18,77.78,90.93,77.88,93.75,77.98z M85.37,75.2
		c0.17-3.54,0.74-6.91,1.78-10.24c2.44,0.89,4.81,1.75,7.28,2.65c-0.18,2.53-0.37,5.15-0.57,7.88C91.01,75.39,88.24,75.3,85.37,75.2
		z M107.84,78.42c-0.2,2.51-0.39,4.97-0.58,7.3c-3.75-0.11-7.36-0.22-11.19-0.33c-0.02-2.28-0.04-4.72-0.06-7.32
		C99.94,78.19,103.8,78.3,107.84,78.42z M96.1,75.58c0.19-2.49,0.37-4.96,0.55-7.32c3.79,0.13,7.43,0.25,11.21,0.37
		c0.01,2.28,0.02,4.78,0.03,7.36C103.91,75.86,100.1,75.72,96.1,75.58z M102.1,104.82c-0.71,0.84-1.48,0.84-2.11-0.08
		c-0.56-0.82-1.02-1.73-1.34-2.66c-1.19-3.37-1.7-6.88-2.09-10.41c-0.11-0.96-0.18-1.93-0.27-2.9c-0.04-0.4-0.03-0.7,0.51-0.75
		c3.16-0.28,6.3-0.22,9.42,0.35c0.2,0.04,0.4,0.11,0.7,0.19c-0.72,5.02-1.57,9.88-3.66,14.44
		C102.97,103.65,102.57,104.27,102.1,104.82z M105.01,104.66c2.46-4.92,3.27-10.27,4.17-15.82c2.36,0.9,4.57,1.75,6.89,2.64
		C113.7,97.18,110.81,102.13,105.01,104.66z M110.09,78.51c2.83,0.1,5.6,0.2,8.71,0.31c-0.61,3.54-1.2,6.93-1.79,10.35
		c-2.64-0.99-5.03-1.88-7.48-2.8C109.71,83.84,109.9,81.22,110.09,78.51z M110.07,68.48c0-0.18,0.25-0.48,0.44-0.53
		c2.32-0.67,4.66-1.3,7.09-1.97c0.8,3.3,1.12,6.74,1.08,10.34c-2.87-0.1-5.67-0.2-8.46-0.29C110.16,73.44,110.09,70.96,110.07,68.48
		z M110.57,104.01c3.37-3.1,5.64-6.92,7.42-11.35c1.66,1.26,3.19,2.43,4.81,3.66C119.26,100.03,115.29,102.6,110.57,104.01z
		 M124.44,94.42c-1.92-1.44-3.71-2.78-5.71-4.29c0.43-1.61,0.99-3.35,1.36-5.12c0.35-1.69,0.53-3.41,0.71-5.13
		c0.07-0.74,0.26-1.07,1.08-1.02c2.78,0.15,5.55,0.23,8.43,0.35C129.85,84.92,127.83,89.91,124.44,94.42z M130.35,76.71
		c-3.11-0.1-6.22-0.2-9.18-0.3c-0.43-3.89-0.84-7.71-1.27-11.62c1.74-1.13,3.66-2.38,5.61-3.64
		C128.48,65.22,130.58,71.94,130.35,76.71z M124.05,59.12c-1.68,1.11-3.3,2.19-5.05,3.35c-1.45-4.52-3.51-8.5-6.66-11.87
		C116.96,52.37,120.78,55.21,124.05,59.12z M117.01,63.48c-2.38,0.74-4.66,1.45-6.99,2.17c-0.36-2.87-0.57-5.56-1.08-8.2
		c-0.5-2.63-1.29-5.21-1.97-7.88C112.48,52.5,114.95,57.66,117.01,63.48z M102.04,49.05c0.67-0.68,1.31-0.67,1.83,0.14
		c0.63,0.98,1.18,2.06,1.55,3.17c1.24,3.8,1.77,7.74,2.13,11.71c0.05,0.57,0.09,1.14,0.15,1.85c-3.62,0.36-7.11,0.32-10.7-0.4
		c0.23-1.46,0.43-2.87,0.68-4.26c0.64-3.6,1.47-7.14,3.11-10.44C101.1,50.17,101.54,49.56,102.04,49.05z M97.6,49.9
		c0.42-0.23,0.88-0.39,1.49-0.66C96.45,54.3,95.63,59.62,94.8,65c-2.31-0.48-4.4-1.35-6.43-2.37c-0.16-0.08-0.28-0.54-0.2-0.74
		C90.18,57,92.81,52.6,97.6,49.9z M93.21,50.08c-3.26,3.17-5.59,6.92-7.28,11.34c-1.63-1.27-3.18-2.47-4.8-3.73
		C84.61,54.05,88.52,51.47,93.21,50.08z M79.56,59.52c0.4,0.34,0.74,0.66,1.12,0.94c1.29,0.95,2.6,1.88,3.88,2.85
		c0.23,0.18,0.5,0.6,0.43,0.82c-1.03,3.48-1.67,7.02-1.89,10.64c-0.01,0.11-0.08,0.22-0.14,0.39c-3.08-0.12-6.16-0.23-9.33-0.36
		C74.11,69.1,76.09,64.09,79.56,59.52z M73.53,77.29c3.18,0.1,6.28,0.2,9.23,0.29c0.43,3.92,0.85,7.73,1.28,11.64
		c-1.71,1.12-3.62,2.35-5.63,3.66C75.26,88.21,73.68,83.05,73.53,77.29z M84.95,91.53c1.43,4.56,3.46,8.53,6.64,11.86
		c-4.61-1.75-8.41-4.59-11.72-8.49C81.55,93.78,83.18,92.7,84.95,91.53z"/>
	<path class="st0" d="M90.6,168.26c2.12,0.02,4.24,0,6.36,0.01c0.65,0,1.07-0.27,1.32-0.9c0.65-1.59,1.87-2.46,3.58-2.46
		c1.77-0.01,3.04,0.85,3.69,2.54c0.22,0.58,0.62,0.85,1.27,0.85c2.12,0,4.24,0.04,6.36,0.06c0.96,0.01,1.38-0.4,1.4-1.34
		c0.02-0.94,0.02-1.87,0.01-2.81c-0.02-1.86-1.27-3.17-3.14-3.27c-1.04-0.05-2.09-0.02-3.14-0.02c-5.26,0-10.52-0.01-15.78-0.01
		c-1.62,0-2.9,0.99-3.27,2.67c0,0.95-0.02,2.13-0.01,3.31C89.26,167.86,89.64,168.25,90.6,168.26z M111.83,162.87
		c0.83,0.01,1.28,0.48,1.28,1.34c0,0.69-0.02,1.38-0.04,2.19c-1.9-0.02-3.72-0.03-5.54-0.08c-0.19,0-0.41-0.18-0.56-0.34
		c-0.97-1.06-1.93-2.14-2.83-3.14C106.55,162.85,109.19,162.84,111.83,162.87z M90.79,163.93c0.04-0.65,0.4-1.07,1.07-1.07
		c2.66-0.01,5.32,0,7.79,0.01c-0.92,1.04-1.89,2.13-2.87,3.21c-0.1,0.11-0.27,0.21-0.41,0.21c-1.84,0.01-3.68,0.01-5.62,0
		C90.76,165.37,90.75,164.65,90.79,163.93z"/>
	<path class="st0" d="M113.37,169.21c-2.15-0.05-4.29-0.04-6.44-0.06c-0.63-0.01-1.02,0.26-1.26,0.86
		c-0.65,1.67-1.91,2.56-3.69,2.55c-1.74-0.02-2.97-0.89-3.58-2.56c-0.22-0.6-0.64-0.88-1.26-0.88c-2.2-0.01-4.4-0.02-6.61,0
		c-0.7,0.01-1.16,0.4-1.18,1.12c-0.03,1.1-0.05,2.2,0.01,3.3c0.08,1.49,1.03,2.56,2.7,2.95c0.16,0.01,0.51,0.06,0.87,0.06
		c2.75,0.01,5.5,0,8.26,0.01c3.39,0,6.77,0.01,10.16,0.01c2,0,3.3-1.3,3.33-3.31c0.01-0.88,0.02-1.76,0.02-2.64
		C114.69,169.62,114.35,169.23,113.37,169.21z M93.92,174.62c-3.24-0.01-3.31-0.09-3.03-3.57c1.88,0,3.7-0.01,5.52,0.01
		c0.18,0,0.41,0.17,0.54,0.33c0.96,1.08,1.9,2.17,2.81,3.22C97.97,174.61,95.94,174.63,93.92,174.62z M113.18,173.41
		c-0.01,0.83-0.49,1.19-1.27,1.2c-2.61,0.01-5.22,0-7.61-0.01c0.91-1.03,1.86-2.11,2.82-3.17c0.14-0.15,0.37-0.32,0.56-0.32
		c1.81-0.01,3.62,0.02,5.52,0.04C113.18,171.97,113.18,172.69,113.18,173.41z"/>
	<path class="st0" d="M128.91,136.95c0.44-1.01,1.01-1.87,1.17-2.81c0.19-1.09,0.1-2.25-0.01-3.36c-0.18-1.7-1.28-2.82-3.03-2.95
		c-1.71-0.13-3.43-0.06-5.33-0.08c0.07,5.99,0.14,11.79,0.21,17.72c1.01,0,1.91,0.01,2.9,0.01c-0.04-2.18-0.06-4.19-0.12-6.21
		c-0.02-0.73,0.21-1.02,0.97-0.94c1.18,0.12,1.64,0.52,1.7,1.79c0.07,1.46,0.04,2.92,0.13,4.38c0.02,0.31,0.36,0.82,0.61,0.86
		c0.78,0.12,1.59,0.05,2.29,0.06c-0.04-1.62-0.1-3.08-0.11-4.53C130.28,139.3,130.08,137.81,128.91,136.95z M127.26,133.6
		c-0.03,1.78-0.49,2.18-2.54,1.99c-0.02-1.73-0.04-3.39-0.06-5.03c2.1-0.4,2.59,0,2.6,2.03
		C127.27,132.93,127.26,133.27,127.26,133.6z"/>
	<path class="st0" d="M120.06,131.65c-0.09-2.15-1.15-3.42-2.99-3.84c-3.15-0.72-5.34,0.96-5.45,4.18
		c-0.01,0.41-0.02,0.82-0.01,1.24c0.06,3.07,0,6.15,0.23,9.2c0.18,2.27,1.83,3.37,4.31,3.29c2.29-0.08,3.74-1.32,3.93-3.51
		c0.11-1.23,0.07-2.47,0.06-3.71C120.14,136.22,120.16,133.94,120.06,131.65z M116.02,143.09c-0.91,0.03-1.43-0.48-1.44-1.36
		c-0.04-3.33-0.08-6.66-0.05-9.99c0.01-1.14,0.7-1.61,2.05-1.29c0.14,0.27,0.6,0.75,0.61,1.24c0.09,3.33,0.09,6.66,0.1,9.99
		C117.29,142.49,116.9,143.07,116.02,143.09z"/>
	<path class="st0" d="M78.95,128.3c-1.12-0.05-2.24-0.02-3.51-0.02c-0.9,5.96-1.77,11.76-2.66,17.67c0.52,0.02,0.92,0.01,1.32,0.06
		c1.02,0.15,1.39-0.24,1.54-1.29c0.34-2.32-0.19-1.88,2.28-1.96c0.4-0.01,0.8,0.04,1.22,0.07c0.14,0.84,0.24,1.62,0.43,2.38
		c0.06,0.26,0.34,0.64,0.55,0.66c0.76,0.07,1.54,0.02,2.44,0.01c-0.99-5.79-1.96-11.43-2.95-17.06
		C79.57,128.61,79.18,128.31,78.95,128.3z M77.56,140.24c-0.4,0-0.81-0.03-1.35-0.05c0.35-2.53,0.69-4.99,1.03-7.44
		c0.08,0,0.17-0.01,0.25-0.01c0.41,2.44,0.82,4.87,1.26,7.45C78.23,140.21,77.9,140.24,77.56,140.24z"/>
	<path class="st0" d="M106.78,138.98c2.2,0.02,3.56-1.04,3.76-3.08c0.17-1.7,0.08-3.45-0.12-5.15c-0.16-1.36-1.07-2.43-2.47-2.59
		c-1.83-0.21-3.7-0.15-5.65-0.22c0.08,6.03,0.16,11.82,0.23,17.7c1,0,1.84,0,2.8,0c0.01-1.78,0.1-3.47-0.01-5.14
		C105.23,139.32,105.59,138.97,106.78,138.98z M105.29,136.25c-0.01-1.82-0.02-3.67-0.03-5.5c1.98-0.43,2.51-0.01,2.53,1.84
		c0,0.63,0.02,1.27,0.01,1.9C107.78,136.26,107.22,136.67,105.29,136.25z"/>
	<path class="st0" d="M69.04,128.41c-1.56-0.13-3.13-0.04-4.85-0.05c0.07,6.03,0.15,11.84,0.22,17.73c1.04-0.03,1.89-0.06,2.82-0.09
		c0-2.22,0-4.33,0-6.5c0.61-0.03,1.09-0.03,1.57-0.07c2.2-0.17,3.42-1.21,3.65-3.39c0.15-1.44,0.13-2.93-0.02-4.37
		C72.22,129.7,71.04,128.57,69.04,128.41z M67.18,136.77c-0.04-1.84-0.08-3.69-0.12-5.6c2.11-0.42,2.57-0.07,2.6,1.88
		c0.01,0.48,0.03,0.97,0.03,1.45C69.7,136.69,69.55,136.83,67.18,136.77z"/>
	<path class="st0" d="M96.8,143.26c-0.99,0.02-1.32-0.53-1.4-1.39c-0.04-0.44-0.05-0.88-0.09-1.47c-0.92,0.01-1.79,0.01-2.73,0.02
		c0.07,0.87,0.07,1.59,0.18,2.29c0.36,2.18,1.94,3.36,4.29,3.25c2.32-0.11,3.75-1.47,3.92-3.68c0.17-2.13-0.53-3.9-2.07-5.37
		c-0.81-0.78-1.66-1.53-2.42-2.35c-0.78-0.83-1.25-1.85-0.9-2.98c0.13-0.42,0.67-0.9,1.11-1c0.67-0.16,1.24,0.22,1.37,0.99
		c0.07,0.43,0.1,0.87,0.15,1.36c0.88,0,1.7-0.01,2.7-0.01c-0.08-0.8-0.09-1.44-0.22-2.05c-0.41-1.91-1.71-2.94-3.68-2.98
		c-2.36-0.04-3.76,0.88-4.24,2.87c-0.51,2.12-0.04,4.03,1.45,5.64c0.87,0.93,1.94,1.7,2.7,2.7c0.58,0.76,0.95,1.75,1.14,2.7
		C98.24,142.59,97.81,143.24,96.8,143.26z"/>
	<path class="st0" d="M91.41,143.1c0.47-2.21-0.02-4.18-1.61-5.82c-0.81-0.83-1.69-1.6-2.51-2.42c-0.84-0.84-1.27-1.85-1.16-3.05
		c0.07-0.74,0.46-1.16,1.23-1.2c0.78-0.05,1.2,0.34,1.35,1.06c0.09,0.43,0.12,0.86,0.18,1.28c2.85,0.17,2.9,0.32,2.36-2.23
		c-0.39-1.86-1.85-2.78-3.99-2.74c-2.08,0.04-3.37,0.98-3.82,2.82c-0.55,2.25-0.05,4.25,1.57,5.92c0.81,0.84,1.69,1.6,2.5,2.44
		c0.78,0.81,1.28,1.76,1.15,2.94c-0.09,0.76-0.4,1.31-1.25,1.31c-0.84,0-1.33-0.46-1.41-1.3c-0.05-0.51-0.05-1.02-0.08-1.62
		c-0.9,0.01-1.71,0.02-2.79,0.04c0.16,1.1,0.18,2.12,0.46,3.05c0.55,1.78,2.16,2.64,4.31,2.49
		C89.76,145.92,91.04,144.88,91.41,143.1z"/>
	<path class="st0" d="M131.07,130.33c1.01,0.02,1.87,0.04,2.87,0.05c0.05,5.04,0.1,9.97,0.14,14.96c1.04,0,1.92-0.01,2.88-0.01
		c-0.04-5.09-0.09-10.02-0.13-14.99c0.98-0.07,2.06,0.17,2.53-0.26c0.46-0.42,0.3-1.53,0.43-2.46c-3.09,0.05-5.91,0.09-8.83,0.13
		C131,128.72,131.03,129.52,131.07,130.33z"/>
	<path class="st0" d="M165.64,179.92V33c0-6.39-5.2-11.58-11.58-11.58H49.89c-6.39,0-11.58,5.2-11.58,11.58v146.91
		c0,6.39,5.2,11.58,11.58,11.58h104.17C160.45,191.5,165.64,186.3,165.64,179.92z M154.06,189.24H49.89c-5.14,0-9.33-4.19-9.33-9.33
		V33c0-5.14,4.19-9.33,9.33-9.33h104.17c5.14,0,9.33,4.18,9.33,9.33v146.91C163.39,185.06,159.2,189.24,154.06,189.24z"/>
	<path class="st0" d="M164.69,17.34h-5.05v2.37h5.05c5.14,0,9.33,4.39,9.33,9.8v154.26c0,5.4-4.19,9.8-9.33,9.8h-5.05v2.37h5.05
		c6.39,0,11.58-5.46,11.58-12.16V29.5C176.27,22.79,171.08,17.34,164.69,17.34z"/>
</g>
</svg>
