<?xml version="1.0" encoding="utf-8"?>
<!-- Generator: Adobe Illustrator 23.0.1, SVG Export Plug-In . SVG Version: 6.00 Build 0)  -->
<svg version="1.1" id="Calque_1" xmlns="http://www.w3.org/2000/svg" xmlns:xlink="http://www.w3.org/1999/xlink" x="0px" y="0px"
	 viewBox="0 0 297.64 212.6" style="enable-background:new 0 0 297.64 212.6;" xml:space="preserve">
<style type="text/css">
	.st0{fill:#1D71B8;}
</style>
<g>
	<path class="st0" d="M261.63,146.02c-6.54-13.02-13.03-26.07-19.54-39.1c-1.3-2.6-2.65-5.17-4.31-8.41
		c-2.97,5.77,0.18,5.93,0.18,5.93l22.33,45.29l-55.3,27.89c0,0-8.66-48.49-11.22-63.21c-0.84-4.85,0.6-9.81,4.03-14.97
		c0.13-0.2-0.15-0.73-0.32-1.07c-2.19-4.3-4.39-8.59-7.03-13.74c-2.55,5.8-5.26,3.16-8.1,1.26c-12.64-8.47-25.38-16.79-37.93-25.4
		c-2.78-1.91-4.58-1.79-7.34,0.1c-13.07,8.97-26.37,17.61-39.5,26.5c-2.08,1.41-3.34,1.5-5.13-0.41
		c-4.12-4.38-8.48-8.53-12.72-12.79c-5.11-5.13-10.21-10.28-15.71-15.82c-15.56,31.11-30.84,61.68-46.18,92.35
		c0.66,0.46,1.03,0.8,1.46,1.02c19.31,9.67,38.61,19.38,58,28.9c1.28,0.63,3.49,0.35,4.86-0.33c18.35-9.03,36.65-18.15,54.89-27.4
		c2.66-1.35,4.71-1.46,7.43-0.07c18.11,9.22,36.35,18.18,54.47,27.38c2.45,1.24,4.31,1.17,6.72-0.05
		c16.75-8.51,33.56-16.9,50.38-25.27c2.48-1.23,5.1-2.17,7.65-3.24c0-0.77,0-1.54,0-2.3C263.02,148.04,262.18,147.11,261.63,146.02z
		 M76.93,177.19c0,0-39.95-20.64-54.82-28.07c12.44-24.88,42.34-85.96,42.34-85.96l28.03,27.06L76.93,177.19z M79.59,178.67
		L94.9,91.38l44.78-29.09l0.51,85.95L79.59,178.67z M142.92,149.14l-0.72-87.32l45.91,30.66l14.8,86.13L142.92,149.14z"/>
	<path class="st0" d="M212.21,114.59c1.68,3.28,3.37,6.56,5.21,10.11c0.43-0.6,0.67-0.87,0.83-1.17
		c8.47-16.6,17.05-33.15,25.35-49.84c6.88-13.83,1.07-30.01-12.93-38.02c-2.54-1.26-0.94-1.09-7.97-3.05
		c-8-0.63-11.18,0.45-11.62,0.57c-19.24,5.21-27.84,24.59-18.78,42.31C198.95,88.53,205.57,101.57,212.21,114.59z M217.31,37.31
		c13.08-0.14,24.22,10.85,24.29,23.97c0.07,13.1-10.96,24.18-24.07,24.19c-12.93,0.01-23.93-10.83-24.12-23.77
		C193.22,48.64,204.18,37.45,217.31,37.31z"/>
	<path class="st0" d="M106.91,134.7l-2.19,0.84l-0.63,2.94c-0.16,0.74-0.31,1.45-0.43,2.23l-0.05,0.02
		c-0.6-0.48-1.16-0.89-1.83-1.34l-2.49-1.77l-2.24,0.86l5.83,3.98l-1.76,7.15l2.22-0.85l0.64-3.1c0.18-0.83,0.32-1.56,0.43-2.37
		l0.05-0.02c0.64,0.51,1.25,0.99,1.93,1.46l2.6,1.86l2.26-0.87l-6.06-4.23L106.91,134.7z"/>
	<path class="st0" d="M124.45,122.43l-0.91,0.35l-0.26,1.22c-0.07,0.31-0.13,0.6-0.18,0.93l-0.02,0.01
		c-0.25-0.2-0.48-0.37-0.76-0.56l-1.03-0.73l-0.93,0.36l2.42,1.65l-0.73,2.97l0.92-0.35l0.27-1.29c0.07-0.34,0.13-0.65,0.18-0.98
		l0.02-0.01c0.27,0.21,0.52,0.41,0.8,0.61l1.08,0.77l0.94-0.36l-2.51-1.75L124.45,122.43z"/>
	<path class="st0" d="M104.59,107.31l0.92-0.35l0.27-1.29c0.07-0.34,0.13-0.65,0.18-0.98l0.02-0.01c0.27,0.21,0.52,0.41,0.8,0.61
		l1.08,0.77l0.94-0.36l-2.51-1.75l0.71-2.82l-0.91,0.35l-0.26,1.22c-0.07,0.31-0.13,0.6-0.18,0.93l-0.02,0.01
		c-0.25-0.2-0.48-0.37-0.76-0.56l-1.03-0.73l-0.93,0.36l2.42,1.65L104.59,107.31z"/>
</g>
</svg>
