<svg id="Calque_1" data-name="Calque 1" xmlns="http://www.w3.org/2000/svg" xmlns:xlink="http://www.w3.org/1999/xlink" viewBox="0 0 841.89 595.28"><defs><style>.cls-1{fill:url(#Dégradé_sans_nom_3);}.cls-2{fill:none;}.cls-3{fill:#241915;}.cls-4{fill:#fff;}.cls-5{fill:#1d1d1b;}.cls-6{fill:#301b13;}.cls-7{fill:#193f24;}.cls-8{fill:#1d71a0;}.cls-9{fill:#0087cb;}.cls-10{fill:#ffc800;}.cls-11{fill:#cb0613;}.cls-12{clip-path:url(#clip-path);}.cls-13{mask:url(#mask);}.cls-14{fill:url(#Dégradé_sans_nom_2);}</style><linearGradient id="Dégradé_sans_nom_3" x1="-182.48" y1="-120.12" x2="-182.14" y2="-120.12" gradientTransform="matrix(0, -126.68, -126.68, 0, -15040.12, -22835.97)" gradientUnits="userSpaceOnUse"><stop offset="0" stop-color="#fff"/><stop offset="1"/></linearGradient><clipPath id="clip-path"><rect class="cls-2" x="167.69" y="247.95" width="17.72" height="53.84"/></clipPath><mask id="mask" x="166.47" y="247.55" width="20.16" height="54.64" maskUnits="userSpaceOnUse"><rect class="cls-1" x="167.08" y="247.75" width="18.94" height="54.23" transform="translate(-6.2 4.08) rotate(-1.3)"/></mask><linearGradient id="Dégradé_sans_nom_2" x1="-182.48" y1="-120.12" x2="-182.14" y2="-120.12" gradientTransform="matrix(0, -126.68, -126.68, 0, -15040.12, -22835.97)" gradientUnits="userSpaceOnUse"><stop offset="0" stop-color="#432918"/><stop offset="1" stop-color="#432918"/></linearGradient></defs><title>LOGO ONT PAYSAGE</title><path class="cls-3" d="M311.5,156.72s-5.26,12.67-9.38,18.76-11,4.11-13.16,4.28-1.15,2.47-1.15,5.59.16,10,0,14.15-1.32,7.41-3.13,13.33-5.26,9-4.77,11.19,0,7.73-1.31,11.84c-.87,2.71-3.22,4.95-5.48,6.55a7.23,7.23,0,0,1-2.73,1.46,6.22,6.22,0,0,1-4.27-1.49,9.45,9.45,0,0,1-2.12-2.54,9.58,9.58,0,0,1-.49-.89c-1.11-2.21-2.41-3.79-2.89-6.31a25.22,25.22,0,0,1-.45-4.67l-9.23,8c-.73-2.73-1.62-5.56-2.29-7.58a45.53,45.53,0,0,1,.89,8.8l-1,.92a86.73,86.73,0,0,0-7.6-15.95c.06.14.49,1,3.21,6.64a45.44,45.44,0,0,1,3.2,10.12l-.61-.15c-38.42-9.9-31.77-49.49-31.77-49.49s10-3.13,15-4.94a124,124,0,0,0,13-6.25c-1.81-.82-2.79-4.77-4.11-7.24s2.14-18.59,2.14-18.59h4.61c7.07.82,13.32,4.44,14.64,7.9s2.63,4.93,4.44,4.93,13.33.17,18.1.17,5.43-6.75,10.53-9.71,18.26,1.15,18.26,1.15"/><path class="cls-4" d="M260.93,228.24c.73,1.65.18,3.64,0,5.48a33.62,33.62,0,0,0,2.62,5.23,9.58,9.58,0,0,0,.49.89,9.45,9.45,0,0,0,2.12,2.54,6.27,6.27,0,0,0,4.27,1.49,7.23,7.23,0,0,0,2.73-1.46c2.26-1.6,4.61-3.84,5.48-6.55,1.31-4.11,1.8-9.7,1.31-11.84s3-5.27,4.77-11.19,3-9.22,3.13-13.33,0-11,0-14.15-1.05-5.43,1.15-5.59,9.05,1.81,13.16-4.28,9.38-18.76,9.38-18.76-13.16-4.11-18.26-1.15-5.76,9.71-10.53,9.71-16.29-.17-18.1-.17-3.13-1.48-4.44-4.93-7.57-7.08-14.65-7.9h-4.6s-3.46,16.13-2.14,18.59,2.3,6.42,4.11,7.24c0,0,4.44,2.31,8.06,2.14s3.62,2.3,5.76,3.46l2.14,1.15s-3.29,5.1-2.63,9.71.49,17.27,1.32,21.38,3.18,6.92,3.65,8.81-1.31,1.12-.26,3.48"/><path class="cls-4" d="M243.66,159.68l-.34-.33c-.43-.45-1-.34.5.52,0,0,0,0,.08,0l0,0-.08-.08-.37-.24c-.05,0,0,0,.19.07"/><path class="cls-5" d="M275.24,240.56a3.81,3.81,0,0,0,1-.92,6.9,6.9,0,0,0,.76-1.17,10.69,10.69,0,0,1,1.55-2.36l0,.07,0-1v0l0,0a7.61,7.61,0,0,0,1.05-2.67,12.57,12.57,0,0,0,.16-2.88c0-1-.12-1.95-.12-2.94a10.39,10.39,0,0,1,.34-3,10,10,0,0,1,.53-1.41l.59-1.34,1.18-2.68c.77-1.79,1.52-3.59,2.21-5.41s1.3-3.67,1.8-5.54a46.5,46.5,0,0,0,1.16-5.68,76.74,76.74,0,0,0-.1-11.64c-.1-2-.17-3.93-.11-5.9,0-.5,0-1,.06-1.48l.06-.75c0-.26,0-.47.09-.78a2.57,2.57,0,0,1,.34-.85,2.07,2.07,0,0,1,.7-.65,3.4,3.4,0,0,1,1.65-.4,21.61,21.61,0,0,1,3,.26l.7.06a3.77,3.77,0,0,0,.66,0c.23,0,.46,0,.69-.08s.46-.08.69-.13a11.55,11.55,0,0,0,5-2.47,16,16,0,0,0,3.55-4.41,25,25,0,0,0,2.19-5.31c.55-1.86,1-3.76,1.4-5.67a14.49,14.49,0,0,0,.43-2.81,4.45,4.45,0,0,0-.61-2.56l.39.18a7.17,7.17,0,0,1-2.4-.16,22,22,0,0,1-2.22-.68,13.93,13.93,0,0,0-2.15-.57,12.6,12.6,0,0,0-2.21-.19,14.19,14.19,0,0,0-4.39.69,9,9,0,0,0-3.72,2.33,18.8,18.8,0,0,0-2.71,3.59,19.81,19.81,0,0,1-1.26,1.92,6.48,6.48,0,0,1-1.69,1.61,4.63,4.63,0,0,1-1.06.49c-.19,0-.38.1-.57.13s-.39.06-.58.06a14.65,14.65,0,0,1-2.3-.13,9.5,9.5,0,0,0-2.26-.05,3.48,3.48,0,0,0-2,.94,3.53,3.53,0,0,1,2-1,9.23,9.23,0,0,1,2.29,0,15.51,15.51,0,0,0,2.26.06,3.31,3.31,0,0,0,.55-.07,5.29,5.29,0,0,0,.54-.13,4.56,4.56,0,0,0,1-.49,6.46,6.46,0,0,0,1.56-1.57c.43-.61.81-1.27,1.19-1.93a18.87,18.87,0,0,1,2.68-3.75,10.38,10.38,0,0,1,1.79-1.51,9.82,9.82,0,0,1,2.11-1,15.25,15.25,0,0,1,4.58-.79,14.09,14.09,0,0,1,2.34.16,15.38,15.38,0,0,1,2.27.57c.73.23,1.44.47,2.15.62a6.71,6.71,0,0,0,2.14.11l.25,0,.14.21a5.28,5.28,0,0,1,.79,3,15.51,15.51,0,0,1-.43,3c-.43,1.9-.83,3.82-1.39,5.73a26,26,0,0,1-2.24,5.51,20.56,20.56,0,0,1-1.66,2.51,14.9,14.9,0,0,1-2.09,2.19,12.61,12.61,0,0,1-5.4,2.71,6.58,6.58,0,0,1-.75.14c-.25,0-.5.08-.76.1a5.23,5.23,0,0,1-.8,0c-.26,0-.52,0-.77-.07a20.6,20.6,0,0,0-2.84-.27,2.54,2.54,0,0,0-1.18.26,1.18,1.18,0,0,0-.57.83,5.77,5.77,0,0,0-.07.67l-.06.72c0,.48-.06,1-.07,1.45-.07,1.93,0,3.87.07,5.82a77.44,77.44,0,0,1,0,11.8,50.64,50.64,0,0,1-3.17,11.37c-.72,1.82-1.51,3.62-2.32,5.4l-1.22,2.67-.61,1.34a9.33,9.33,0,0,0-.53,1.32,10.61,10.61,0,0,0-.39,2.82c0,1,0,2,0,2.93a12.74,12.74,0,0,1-.25,2.95,7.94,7.94,0,0,1-1.15,2.73v1l0,0a10.75,10.75,0,0,0-1.59,2.27,7.68,7.68,0,0,1-.81,1.15,3.7,3.7,0,0,1-1.08.89"/><path class="cls-5" d="M279.83,199.34c0-.08.68-.42.75-.46.58-.37,1.14-.76,1.68-1.18a12,12,0,0,0,1.77-1.65,2.23,2.23,0,0,0,.62-2.28.11.11,0,0,0,0-.08c-.06-.05-.14,0-.2,0-.27.21-.6.29-.86.47a6.38,6.38,0,0,0-.72.75l-1.41,1.47-1.6,1.67Z"/><polygon class="cls-5" points="263.7 198.76 259.35 193.66 261.07 193.66 264.36 197.28 263.62 199.34 263.7 198.76"/><polygon class="cls-5" points="262.47 200.74 262.47 202.46 259.35 203.7 258.77 201.72 259.92 201.31 258.28 198.09 258.69 196.5 262.47 200.74"/><path class="cls-3" d="M287.87,180.84c-.52.76.18,2-.33,2.89a2.44,2.44,0,0,0-.24.41,1.18,1.18,0,0,0,0,.53c.06.4.13.81.19,1.22-1-.49-1.22-1.69-1.73-2.62a4.15,4.15,0,0,0-2.67-2.07c-2.82-.63-4.23,2.36-4.52,4.72-.21,1.68,1.33,3.54.81,5s-2.59,2.18-3.24,3.7c-1.11,2.59-2.47,12.34-2.47,17.77s1.64,10.44,3.29,12.91,2.93,8,1.64,10.53-2.92,7.46-8.2,8-7.3-4.59-8.54-7.91a38.39,38.39,0,0,1-1.68-8s1.07-5.68,4.19-6.92,6.09-3.26,5.84-10.88-3-7.21-4.44-10,2.14-14.11-1.4-17.57c-1.28-1.25-5.94-4.48-7.9-3-.44.33-.45,1-.48,1.53s-.24,1.22-.79,1.31a1.36,1.36,0,0,1-.95-.35c-.62-.42-2.14-.14-2.83-.44-2.61-1.14-4.86-1.32-7.37-2.68-2.89-1.56-4.92-6.45-5.55-9.52-1.28-6.3,3.29-12.7,1.4-18.83l7.87,1.24a18.69,18.69,0,0,1,2.88.62,14.93,14.93,0,0,1,2.47,1.14,39.3,39.3,0,0,1,3.65,2.3c3,2.11,4.35,5.75,6.23,8.79,0,0,12,.6,15.28.62a35.65,35.65,0,0,0,7.11-.86c1.57-3.08,4.12-7.12,7.31-8.68,4.87-2.37,10.29-.91,15.49-.77a1.26,1.26,0,0,1,.58.12,1.07,1.07,0,0,1,.29.34c.9,1.51.74,3.4.44,5.13a38.36,38.36,0,0,1-6.21,14.39,11.18,11.18,0,0,1-5.43,4.25c-2.66,1-6.42.47-9.12,1.17a1.71,1.71,0,0,0-.71.33.8.8,0,0,0-.15.17"/><path class="cls-4" d="M264.36,217.27a25.4,25.4,0,0,1-2.51-5.59,41.53,41.53,0,0,0-1.48-4.28l1.48-.66,2.51,2.14Z"/><path class="cls-3" d="M283.86,204c.7-.43,2.19-5,2.57-5.87a35.94,35.94,0,0,1-3.4,2c-1.14.59-3.86,2.9-1.26,3.81a4.54,4.54,0,0,0,2,.06.11.11,0,0,0,.08,0"/><path class="cls-5" d="M280.94,201.93a6.88,6.88,0,0,0,1.21-1.08,12.17,12.17,0,0,1,1.05-1.4,6,6,0,0,1,1.67-1c.08,0,.51-.18.51-.31,0,.08-.16,5.18-4.44,3.84"/><path class="cls-4" d="M260.92,235.31s.18,1.42,2.16,1.35a7.91,7.91,0,0,1,3.45.68l-.37.74s-2.65-.37-3.14,0,.92,2.41,1.23,3c0,0-3.58-4.51-3.33-5.8"/><rect class="cls-3" x="191.17" y="247.95" width="55.85" height="15.59"/><rect class="cls-3" x="208.58" y="256.27" width="17.91" height="45.86"/><path class="cls-3" d="M76.92,314.74a4.66,4.66,0,1,1,4.65,4.85,4.58,4.58,0,0,1-4.65-4.85m8.11,0c0-2.19-1.36-3.81-3.46-3.81s-3.44,1.62-3.44,3.81,1.34,3.81,3.44,3.81S85,316.92,85,314.74"/><path class="cls-3" d="M88.31,319.42v-5.86H87.18v-.93h1.13v-.52a1.94,1.94,0,0,1,2-2.21,2,2,0,0,1,1.44.52l-.44.68a1.19,1.19,0,0,0-.83-.32c-.7,0-1.08.46-1.08,1.33v.52h1.38v.93H89.36v5.86Zm4,0v-5.86H91.17v-.93H92.3v-.52a2,2,0,0,1,2-2.21,2.06,2.06,0,0,1,1,.23l-.26.8a1.13,1.13,0,0,0-.61-.15c-.7,0-1.08.46-1.08,1.33v.52h1.38v.93H93.35v5.86ZM95.8,311a.71.71,0,1,1,1.42,0,.71.71,0,0,1-1.42,0m.18,1.67h1v6.79H96Z"/><path class="cls-3" d="M98.75,316a3.35,3.35,0,0,1,3.38-3.56,2.92,2.92,0,0,1,2.49,1.18l-.7.64a2,2,0,0,0-1.73-.88,2.64,2.64,0,0,0,0,5.25,2.07,2.07,0,0,0,1.73-.89l.7.65a2.92,2.92,0,0,1-2.49,1.18A3.36,3.36,0,0,1,98.75,316"/><path class="cls-3" d="M105.72,316a3.39,3.39,0,0,1,3.34-3.56c2,0,3.26,1.6,3.26,3.64v.27h-5.48a2.38,2.38,0,0,0,2.43,2.35,2.93,2.93,0,0,0,2.11-.88l.51.69a3.73,3.73,0,0,1-2.7,1.06,3.37,3.37,0,0,1-3.47-3.57m3.33-2.69a2.27,2.27,0,0,0-2.22,2.25h4.45a2.19,2.19,0,0,0-2.23-2.25"/><polygon class="cls-3" points="124.34 319.42 118.87 311.94 118.87 319.42 117.71 319.42 117.71 310.05 118.9 310.05 124.3 317.37 124.3 310.05 125.46 310.05 125.46 319.42 124.34 319.42"/><path class="cls-3" d="M131.86,319.42v-.77a3,3,0,0,1-2.25.94,2.26,2.26,0,0,1-2.36-2.25,2.21,2.21,0,0,1,2.36-2.24,2.88,2.88,0,0,1,2.25.92v-1.23c0-.89-.73-1.41-1.72-1.41a2.67,2.67,0,0,0-2.08.94l-.49-.73a3.55,3.55,0,0,1,2.71-1.13c1.45,0,2.63.65,2.63,2.29v4.67Zm0-1.43v-1.3a2.3,2.3,0,0,0-1.86-.83,1.5,1.5,0,1,0,0,3,2.28,2.28,0,0,0,1.86-.84"/><path class="cls-3" d="M135.24,318v-4.44h-1.12v-.93h1.12v-1.85h1.07v1.85h1.38v.93h-1.38v4.21c0,.51.23.88.68.88a1,1,0,0,0,.71-.3l.31.8a1.7,1.7,0,0,1-1.25.44,1.4,1.4,0,0,1-1.52-1.59"/><path class="cls-3" d="M139,311a.72.72,0,0,1,.72-.72.71.71,0,0,1,.7.72.7.7,0,0,1-.7.7.71.71,0,0,1-.72-.7m.19,1.67h1.05v6.79h-1.05Z"/><path class="cls-3" d="M141.93,316a3.37,3.37,0,1,1,3.36,3.57,3.34,3.34,0,0,1-3.36-3.57m5.61,0a2.28,2.28,0,1,0-2.25,2.63,2.36,2.36,0,0,0,2.25-2.63"/><path class="cls-3" d="M155,319.42V315c0-1.21-.62-1.58-1.53-1.58a2.65,2.65,0,0,0-2,1.06v5h-1v-6.79h1v1a3.35,3.35,0,0,1,2.43-1.15,1.92,1.92,0,0,1,2.15,2.19v4.77Z"/><path class="cls-3" d="M162.37,319.42v-.77a3,3,0,0,1-2.25.94,2.26,2.26,0,0,1-2.36-2.25,2.21,2.21,0,0,1,2.36-2.24,2.88,2.88,0,0,1,2.25.92v-1.23c0-.89-.73-1.41-1.72-1.41a2.67,2.67,0,0,0-2.08.94l-.49-.73a3.55,3.55,0,0,1,2.71-1.13c1.45,0,2.63.65,2.63,2.29v4.67Zm0-1.43v-1.3a2.3,2.3,0,0,0-1.86-.83,1.5,1.5,0,1,0,0,3,2.28,2.28,0,0,0,1.86-.84"/><rect class="cls-3" x="165.54" y="310.05" width="1.05" height="9.37"/><path class="cls-3" d="M177.26,319.42v-1a2.84,2.84,0,0,1-2.29,1.18c-1.77,0-3-1.35-3-3.56s1.25-3.57,3-3.57a2.81,2.81,0,0,1,2.29,1.2V310h1.06v9.38Zm0-1.86V314.5a2.51,2.51,0,0,0-2-1.1c-1.38,0-2.19,1.13-2.19,2.63s.81,2.62,2.19,2.62a2.5,2.5,0,0,0,2-1.09"/><path class="cls-3" d="M185,319.42v-1a3.34,3.34,0,0,1-2.42,1.13,1.92,1.92,0,0,1-2.16-2.17v-4.79h1v4.47c0,1.19.6,1.55,1.53,1.55a2.6,2.6,0,0,0,2-1v-5h1.05v6.79Z"/><polygon class="cls-3" points="194.17 319.42 194.17 311.08 191.21 311.08 191.21 310.05 198.32 310.05 198.32 311.08 195.34 311.08 195.34 319.42 194.17 319.42"/><path class="cls-3" d="M197.81,316a3.37,3.37,0,1,1,3.36,3.57,3.33,3.33,0,0,1-3.36-3.57m5.61,0a2.28,2.28,0,1,0-2.25,2.63,2.36,2.36,0,0,0,2.25-2.63"/><path class="cls-3" d="M210.82,319.42v-1a3.31,3.31,0,0,1-2.41,1.13,1.92,1.92,0,0,1-2.17-2.17v-4.79h1.06v4.47c0,1.19.6,1.55,1.53,1.55a2.58,2.58,0,0,0,2-1v-5h1.06v6.79Z"/><path class="cls-3" d="M214,319.42v-6.79h1v1.08a2.92,2.92,0,0,1,2.26-1.23v1.08a2.2,2.2,0,0,0-2.26,1.05v4.81Z"/><path class="cls-3" d="M218.44,311a.72.72,0,0,1,.72-.72.71.71,0,0,1,.7.72.7.7,0,0,1-.7.7.71.71,0,0,1-.72-.7m.18,1.67h1.06v6.79h-1.06Z"/><path class="cls-3" d="M221.21,318.52l.53-.76a3.08,3.08,0,0,0,2.24,1c1,0,1.61-.49,1.61-1.17,0-1.64-4.2-.63-4.2-3.14,0-1.07.9-2,2.52-2a3.37,3.37,0,0,1,2.51,1l-.49.73a2.6,2.6,0,0,0-2-.86c-.93,0-1.51.46-1.51,1.07,0,1.47,4.21.5,4.21,3.15,0,1.13-.92,2-2.66,2a3.64,3.64,0,0,1-2.74-1.07"/><path class="cls-3" d="M236.51,319.42v-4.61c0-.86-.36-1.41-1.25-1.41a2.36,2.36,0,0,0-1.8,1v5h-1.05v-4.61c0-.86-.35-1.41-1.25-1.41a2.39,2.39,0,0,0-1.79,1.06v5h-1.05v-6.79h1.05v1a3,3,0,0,1,2.21-1.15,1.72,1.72,0,0,1,1.81,1.27,2.87,2.87,0,0,1,2.28-1.27c1.24,0,1.9.69,1.9,2.05v4.91Z"/><path class="cls-3" d="M239.28,316a3.4,3.4,0,0,1,3.35-3.56c2.05,0,3.26,1.6,3.26,3.64v.27h-5.48a2.38,2.38,0,0,0,2.43,2.35,3,3,0,0,0,2.11-.88l.5.69a3.73,3.73,0,0,1-2.7,1.06,3.37,3.37,0,0,1-3.47-3.57m3.33-2.69a2.27,2.27,0,0,0-2.22,2.25h4.46a2.2,2.2,0,0,0-2.24-2.25"/><path class="cls-6" d="M161.43,379.43v-9.71s5.88-6.74,6-7.57l.11-.82h2.8l-1.65-1.65s2.22-2.3,1.65-3.86a14.67,14.67,0,0,0-2.91-3.79l8-6.41-.83-1.32-7.73,6.83s-.9,1.13-.16,2.06,1.85,2.46,1.73,3.08a5.18,5.18,0,0,1-1.3,2.35c-.43.18-2.59,3.33-4.81,6s-4.2,4.69-4.26,6.11l-.06,1.42s-2.84-.87-3-1.55-1.48-2.59-3.08-2.65l-1.6-.06v1s3.08.06,3.82,1.6,1.79,2.47,2.9,2.59l1.11.13.12,6.6,3.58-.37Z"/><path class="cls-6" d="M166.86,360.67a19.78,19.78,0,0,1-1.4-3.95c-.16-1.31,0-2,1.24-3.53s2.09-3.05.71-3.87-1.08-.41-.65-2.3a16,16,0,0,1,.65-2.39h-.65l-1.35,2.63a8.48,8.48,0,0,1-3.73-1.48l-1.32-1.15-.49.82s2.48,2.31,4.12,2.55a2.7,2.7,0,0,1,2.13,1.81,3.25,3.25,0,0,1-.74,2.84c-.9.86-1.07,3.42-.9,3.83s-4.69-1.24-5.68-3.13-.66-3,0-4.77l.66-1.73-.66-.82s-2,3.29-1.73,4.36l.25,1.07a24.13,24.13,0,0,0-3.54-3.62C152,346.44,152,346,152,346a7.32,7.32,0,0,0,1.15-1.4c.09-.33-.57-.33-.57-.33L151,346l-3.38-1.32-1.89.08s4.28,1.89,4.94,2.31.57,2.13.57,2.13a2.47,2.47,0,0,1,3,.5,16.62,16.62,0,0,1,2.39,2.84l-1.89.37.33,1s.74-.74,2.38.42,4.9,2.22,5.45,3.12,2.22,1.63,1.3,3.87a25.54,25.54,0,0,0-1.3,3.95Z"/><path class="cls-7" d="M136,342.82s.25.23.65.54c1.07.81,3.27,2.22,5.15,1.68,2.59-.74,5.92-1.36,6.91-1.05s1.19.93,3.87.31,3.91-1.11,5.26,0,2.92.74,5-.31,3.48.55,5.82,1.17,2-1.54,3.58-.86,1.11,3,4.2,2.1-.87-1.36,3.82-3.58,7.41-.49,11.35-1.6c2-.58,4.31-.43,6.29-1.05,1.4-.44,2.42-1.48,3.81-2-.17-2.09-3.26-1.84-3.38-2.24a1.93,1.93,0,0,1,.55-1.94h-1.48a6.56,6.56,0,0,0-1.16-2.87c-.11.94-1.6,1.06-2.22.34a3.75,3.75,0,0,1-.55-2.71c-1.29,1.24-2.92,2.45-4.68,2.18s-2.92-2.93-1.41-3.89a21.94,21.94,0,0,1-5.17-1.77l-1.12,3.28a3.39,3.39,0,0,0-3.7-.29,1.24,1.24,0,0,0,.61-1.36,6,6,0,0,0-2.56.19l-.15,1.53c.2-.32-.23-.73-.6-.69a2.53,2.53,0,0,0-1,.52,2.79,2.79,0,0,1-4-3.64A3.24,3.24,0,0,1,168.3,326a1.12,1.12,0,0,1-1.46-.76,6.37,6.37,0,0,1-5.1.13,1,1,0,0,1-.85,1.15,12.19,12.19,0,0,1-10.43-2.68,3.51,3.51,0,0,1,1.21,3.87,3,3,0,0,1-2.11.82c-.77-.12-1.29-1.26-.65-1.69l-3.38.2c-4.51,2-8.8.55-12.77,3.43-1.35,1-.24,1,1.11,2.72s2.1,4.19-.86,4.19-3.21-1.37-4.44-1.55-2,3.4-2.84,2.41,1,1.49,2.1,2.1-1.61,3,.74,3.09,2.71-2.1,4.69-1.24,2.71.62,2.71.62"/><path class="cls-8" d="M275.85,253.15c-.11-.39-.23-.77-.34-1.15l-3.57,1.24c.09.32.19.63.28.94q.7,2.48,1.26,5a77.84,77.84,0,0,1,1.62,20.48,82.3,82.3,0,0,1-3.7,20.22A91.88,91.88,0,0,1,263,318.65a103.07,103.07,0,0,1-12.23,16.56,116,116,0,0,1-15.14,13.92,126.12,126.12,0,0,1-17.29,11.11,137.91,137.91,0,0,1-38.52,13.57,130.62,130.62,0,0,1-40.5,1.42,116.37,116.37,0,0,1-38.13-11.47A96.45,96.45,0,0,1,70.75,340a80.23,80.23,0,0,1-10.39-15.75l-.54-1c-.16-.36-.31-.72-.47-1.07l-1-2.15c-.15-.36-.33-.7-.46-1.08l-.4-1.09-.83-2.2-.2-.54-.18-.56L56,313.42l-.7-2.23c-.4-1.51-.75-3-1.13-4.55A75.06,75.06,0,0,1,52.54,288c.09-1.56.13-3.13.33-4.69l.24-2.34c0-.39.11-.78.17-1.17l.19-1.16.38-2.34.51-2.31.25-1.16a11.48,11.48,0,0,1,.27-1.16l.63-2.3A96.7,96.7,0,0,1,73.4,235.24,116.34,116.34,0,0,1,103.35,209a130.56,130.56,0,0,1,37.45-15.45A136.93,136.93,0,0,1,181.47,190a127.34,127.34,0,0,1,14.31,1.75l3.65-5.86a135,135,0,0,0-17.32-3.08,145.29,145.29,0,0,0-43.24,1.83A153.69,153.69,0,0,0,97.67,199a131.23,131.23,0,0,0-35.41,26.57,110.26,110.26,0,0,0-13.7,18,98.17,98.17,0,0,0-9.62,20.81l-.88,2.76c-.16.46-.26.93-.39,1.4l-.36,1.41-.72,2.81L36,275.57,35.76,277c-.08.48-.19.95-.25,1.44l-.38,2.89c-.31,1.93-.39,3.88-.53,5.83a87,87,0,0,0,1.8,23.32c.48,1.9.93,3.8,1.45,5.69l.88,2.79.45,1.4.23.7.26.69,1.06,2.73.54,1.36c.17.46.4.89.6,1.34l1.24,2.66c.2.44.4.89.62,1.32l.69,1.29a90.64,90.64,0,0,0,13.4,19,99.85,99.85,0,0,0,17.37,15,111.35,111.35,0,0,0,19.9,10.69,131.09,131.09,0,0,0,43.2,9.56,153.73,153.73,0,0,0,43.42-4,146.21,146.21,0,0,0,40.12-16.2A131.47,131.47,0,0,0,239.48,354a122.29,122.29,0,0,0,15.28-15.25A110.7,110.7,0,0,0,267,320.94a98.65,98.65,0,0,0,8.35-19.86,89.94,89.94,0,0,0,3.6-21.23,84.16,84.16,0,0,0-1.79-21.47q-.57-2.64-1.3-5.23"/><path class="cls-9" d="M277.15,258.38q-.57-2.64-1.3-5.23c-.11-.39-.23-.77-.34-1.15l-3.57,1.24.28.94q.7,2.48,1.26,5a77.84,77.84,0,0,1,1.62,20.48,82.3,82.3,0,0,1-3.7,20.22A91.88,91.88,0,0,1,263,318.65a103.07,103.07,0,0,1-12.23,16.56,116,116,0,0,1-15.14,13.92,126.12,126.12,0,0,1-17.29,11.11,137.91,137.91,0,0,1-38.52,13.57,130.62,130.62,0,0,1-40.5,1.42,118,118,0,0,1-30.54-8,42.17,42.17,0,0,1-1.56,4.9c-1.07,2.76-2.3,5.43-3.57,8.09a133.68,133.68,0,0,0,34.66,6.4,153.77,153.77,0,0,0,43.42-4,146.21,146.21,0,0,0,40.12-16.2A131.47,131.47,0,0,0,239.48,354a122.29,122.29,0,0,0,15.28-15.25A110.7,110.7,0,0,0,267,320.94a98.65,98.65,0,0,0,8.35-19.86,89.94,89.94,0,0,0,3.6-21.23,84.16,84.16,0,0,0-1.79-21.47"/><path class="cls-10" d="M108.76,206.24a17.51,17.51,0,1,1-17.5-17.5,17.51,17.51,0,0,1,17.5,17.5"/><path class="cls-11" d="M122.36,369.5a24.6,24.6,0,1,1-24.6-24.59,24.6,24.6,0,0,1,24.6,24.59"/><path class="cls-3" d="M158.89,281.84c-.43-.32-.85-.67-1.27-1a31,31,0,0,1-3.3-3.18,1.49,1.49,0,0,1-.12-.14,6.83,6.83,0,0,1-.14,2.16,15,15,0,0,0-.44,2c-.05.63,0,1.21-.07,1.85l0,.26c-.13,1.43-.19,2.86-.29,4.29-1.43-.54-1.82.47-2.56,1.42-1.92,2.47-4.11,4.72-6.21,7-1,1.14-2.11,2.24-3.14,3.38-1.21,1.34-3.38,2.21-4.57,1.59a3.37,3.37,0,0,1-1.17-.95v-7.92a2.64,2.64,0,0,1,1,.42,5.21,5.21,0,0,1,1.66,1.37,7.09,7.09,0,0,1,.52,2.11,3.07,3.07,0,0,0,.32-5.09,10.19,10.19,0,0,0-2.85-1.49,3.18,3.18,0,0,1-.64-.32V286a4.38,4.38,0,0,1,1.3,0c2.32.19,4.63.49,7,.58a8.22,8.22,0,0,0,2.39-.63c-.47-.7-.8-1.84-1.42-2a54.56,54.56,0,0,0-6.5-1.3c-.78-.13-1.62,0-2.39-.17a.84.84,0,0,1-.33-.16V281a.85.85,0,0,1,.42-.17c2.16-.19,4.32-.27,6.49-.38a7.22,7.22,0,0,0,1.69-.1c.43-.13.76-.56,1.13-.85-.34-.34-.63-.92-1-1-1.63-.23-3.28-.36-4.92-.43-1.08-.05-2.18.15-3.25.06a1.05,1.05,0,0,1-.55-.23v-1.4a1.05,1.05,0,0,1,.48-.29c2.21-.53,4.47-.86,6.69-1.39a17.18,17.18,0,0,0,2.73-1.18c0-.24,0-.48,0-.72a12.69,12.69,0,0,0-2.91-.34c-1.81.19-3.59.69-5.39.92a5.11,5.11,0,0,1-1.56,0v-7.82a6.57,6.57,0,0,1,1.81-.5,12.18,12.18,0,0,0,1.53-.46l.06-.52a12.24,12.24,0,0,0-1.7-.59,6.27,6.27,0,0,1-1.7-.52V248.81a2.19,2.19,0,0,1,.83-.13q8,.09,15.93.12a2.81,2.81,0,0,1,2.77,1.79c1,2,2.09,4,3.15,6-.33,3-.47,6-.52,8.93a122.8,122.8,0,0,0,1.15,16.28"/><rect class="cls-3" x="167.69" y="247.95" width="17.72" height="53.84"/><g class="cls-12"><g class="cls-13"><rect class="cls-14" x="167.08" y="247.75" width="18.94" height="54.23" transform="translate(-6.2 4.08) rotate(-1.3)"/></g></g><path class="cls-6" d="M153.52,279.67V302H135.58v-6.91c.91,1,2.24,2.07,3.26,1.85,1.72-.37,4.07-2.34,3.08-4.56s-.61-2.84-.61-2.84l4.56-.86s4.57,0,3.46-3.83a8.59,8.59,0,0,1,.17-6.17l3.28-.62Z"/><path class="cls-3" d="M122,251.17a83,83,0,0,1-18.49,5,3.24,3.24,0,0,0-2.77-1A4,4,0,0,0,98,256a2,2,0,0,0-.47.79q-3.39.25-6.79.22a28,28,0,0,0-7.87.56c-1.6.45-5.33,3.39-8.7,5.53a42.17,42.17,0,0,1,.5-5.05,11,11,0,0,1,3.93-6.34,22.47,22.47,0,0,1,8.94-4.4,49.77,49.77,0,0,1,13.11-1.54,51.24,51.24,0,0,1,12.76,1.45,23.37,23.37,0,0,1,8.61,3.95"/><path class="cls-3" d="M92.38,259.28c1.41,0,3-.08,4.69-.21q0,.53-.06,1.14c-3.44.11-6.58.11-8.88.11-5.27,0-11.53,3-11.92,3.19,10-5.67,9.84-4.23,16.17-4.23"/><path class="cls-3" d="M126.15,256.44,111.53,259c-2.31.41-4.82.69-7.34.89,0-.58-.06-1.1-.11-1.55,3.86-.53,7.64-1.2,10.5-1.82a37.49,37.49,0,0,0,9.24-3.61,10.89,10.89,0,0,1,2.33,3.58"/><path class="cls-3" d="M84.93,262.24c1.57-.08,6.35-.4,12.07-.78v3.41c-7.17.22-14.79,0-18,1-2.15.63-3.86,1.11-5,1.41,0-.14,0-.29,0-.43,2.83-1.51,8.65-4.47,10.92-4.59"/><path class="cls-3" d="M127.08,263.12c-4.21.2-15.78.76-22.87,1.31V261l9.49-.64a100.3,100.3,0,0,0,13-1.56c.16,1.14.29,2.6.37,4.36"/><path class="cls-3" d="M87.17,267.69c2.16,0,5.73-.12,9.83-.3v2.22l-1.77,0h-.65l-.82,0h-.65l-1.39,0h-2.2l-1.72,0H85.45L97,270v3.45c-4.49,0-8.41-.13-11-.3A70.39,70.39,0,0,1,74,271.44v-1.57a53.44,53.44,0,0,1,13.18-2.18"/><path class="cls-3" d="M106.36,269.33l-2.15.07V267c7.33-.37,14.71-.79,18-1,2.37-.12,4-.15,5-.14,0,1,0,2.08,0,3.23-3.57,0-13-.14-20.86.15"/><path class="cls-3" d="M127.22,270.6v2.63c-4.45.08-14,.24-23,.26v-3.32Z"/><path class="cls-3" d="M93.26,275.7c1.14-.15,2.4-.28,3.74-.38v3a96.33,96.33,0,0,1-18.4-.41,15.52,15.52,0,0,1-4.61-.95V275.8c3.8.22,13.64.67,19.27-.1"/><path class="cls-3" d="M127.22,274.86v2.85a220.37,220.37,0,0,0-23-.2V275c5.07-.14,10.09-.1,13.21-.1Z"/><path class="cls-3" d="M94.46,280.87c.77-.08,1.62-.16,2.54-.23v2a111.52,111.52,0,0,1-12.75.64c-5.5-.19-7.93.09-10.25-1.77,0-.46,0-.94,0-1.43,4.11.4,15.24,1.38,20.47.8"/><path class="cls-3" d="M127.22,279.84q0,1.38,0,2.61c-6.67-.16-20-.5-22-.5-.25,0-.57,0-1,0v-1.73c5.92-.2,12.66-.28,18-.35l5-.07"/><path class="cls-3" d="M97,287c0,.6,0,1.16,0,1.67-8.83.37-18.82.24-22.9-2.65,0-.53-.05-1.08-.06-1.66A66.55,66.55,0,0,0,92.9,286c1.38-.07,2.74-.16,4.1-.27Z"/><path class="cls-3" d="M127.13,284.94q-.07,2-.21,3.57a146,146,0,0,0-17.43-.55c-1.44.06-3.25.17-5.3.3,0-.53,0-1.1,0-1.71v-1.44c7.17-.75,13.2-1.56,16.34-1.24,2.43.26,4.83.7,6.58,1.07"/><path class="cls-3" d="M126.57,291.18h0a10.25,10.25,0,0,1-2.77,5.17c-7.61-.25-19.07-.58-26.31-.58a119.31,119.31,0,0,1-22.25-2.62,8.82,8.82,0,0,1-.6-1.89c0-.28-.1-.58-.15-.91l1.7.43c4.93,1.26,11.18.67,17.19.13,1.14-.11,2.4-.21,3.75-.31a6.35,6.35,0,0,0,.5,2.3c.41.75,1.39,1.12,2.92,1.12s2.57-.43,3-1.29a7.82,7.82,0,0,0,.52-2.51,122.46,122.46,0,0,1,13.1.15c4.66.32,7.64.61,9.39.81"/><path class="cls-3" d="M120.74,298.87a25.23,25.23,0,0,1-7,3,49.79,49.79,0,0,1-13.12,1.54,51.35,51.35,0,0,1-12.76-1.45,22.79,22.79,0,0,1-9.1-4.35,15.67,15.67,0,0,1-1.69-1.66c4.68,1,14,2.74,20.44,2.74,7.41,0,18.11.42,23.25.21"/><path class="cls-4" d="M243.13,154.21s-2.8,10.28-2.31,13,1,6.37,3.65,8.67l2.6,2.31s-5.59-8.72-3.94-16.29,0-7.72,0-7.72"/><path class="cls-4" d="M252.4,156.91s3.7,1.48,3,6.42-2.27,9.87.1,10.61,4.91-3.21,3.89-8.52-1.52-6.29-7-8.51"/><path class="cls-4" d="M288,165.05s3.45-7.07,7.4-8.31l3.95-1.23s-7,2.22-9.62,8-1.73,1.56-1.73,1.56"/><path class="cls-4" d="M247.7,225.6a11.85,11.85,0,0,1,1,2.81c-.53-1.61-.91-2.7-1-2.81"/><polygon class="cls-3" points="185.41 301.79 166.39 301.79 137.93 248.64 153.82 248.64 185.41 301.79"/><path class="cls-9" d="M313.34,266.39C313.34,254.5,322,246,334,246s20.58,8.52,20.58,20.41-8.69,20.4-20.58,20.4-20.64-8.52-20.64-20.4m32.59,0c0-7.4-4.68-13-11.95-13s-12,5.56-12,13,4.67,12.95,12,12.95,11.95-5.62,11.95-12.95"/><polygon class="cls-9" points="360.47 286.08 360.47 246.63 388.39 246.63 388.39 254.03 368.87 254.03 368.87 262.31 387.97 262.31 387.97 269.7 368.87 269.7 368.87 286.08 360.47 286.08"/><polygon class="cls-9" points="394.24 286.08 394.24 246.63 422.15 246.63 422.15 254.03 402.64 254.03 402.64 262.31 421.74 262.31 421.74 269.7 402.64 269.7 402.64 286.08 394.24 286.08"/><rect class="cls-9" x="428.01" y="246.63" width="8.4" height="39.44"/><path class="cls-9" d="M442.32,266.39c0-12.19,9.16-20.41,21.05-20.41a17.94,17.94,0,0,1,16.44,9.64l-7.22,3.55a10.67,10.67,0,0,0-9.22-5.74c-7.22,0-12.42,5.5-12.42,13s5.2,12.95,12.42,12.95a10.67,10.67,0,0,0,9.22-5.74l7.22,3.49c-2.78,4.91-7.81,9.7-16.44,9.7-11.89,0-21.05-8.28-21.05-20.4"/><polygon class="cls-9" points="484.83 286.08 484.83 246.63 512.75 246.63 512.75 254.03 493.23 254.03 493.23 262.31 512.33 262.31 512.33 269.7 493.23 269.7 493.23 278.69 512.75 278.69 512.75 286.08 484.83 286.08"/><polygon class="cls-9" points="561.71 286.08 542.9 260.35 542.9 286.08 534.51 286.08 534.51 246.63 543.14 246.63 561.41 271.41 561.41 246.63 569.81 246.63 569.81 286.08 561.71 286.08"/><path class="cls-9" d="M604.88,286.08l-2.49-6.68H585.48L583,286.08h-9.52l15.2-39.45H599.2l15.2,39.45Zm-10.94-31-6.15,17h12.3Z"/><polygon class="cls-9" points="623.39 286.08 623.39 254.03 611.86 254.03 611.86 246.63 643.32 246.63 643.32 254.03 631.84 254.03 631.84 286.08 623.39 286.08"/><rect class="cls-9" x="648.7" y="246.63" width="8.4" height="39.44"/><path class="cls-9" d="M663,266.39C663,254.5,671.7,246,683.65,246s20.57,8.52,20.57,20.41-8.69,20.4-20.57,20.4S663,278.27,663,266.39m32.58,0c0-7.4-4.67-13-11.94-13s-12,5.56-12,13,4.67,12.95,12,12.95,11.94-5.62,11.94-12.95"/><polygon class="cls-9" points="737.34 286.08 718.53 260.35 718.53 286.08 710.14 286.08 710.14 246.63 718.77 246.63 737.04 271.41 737.04 246.63 745.44 246.63 745.44 286.08 737.34 286.08"/><path class="cls-9" d="M780.51,286.08,778,279.4H761.11l-2.48,6.68h-9.52l15.2-39.45h10.52L790,286.08Zm-10.94-31-6.15,17h12.3Z"/><polygon class="cls-9" points="793.34 286.08 793.34 246.63 801.8 246.63 801.8 278.69 818.47 278.69 818.47 286.08 793.34 286.08"/><path class="cls-9" d="M316,343.17V303.73h15.55c12.36,0,20.93,7.86,20.93,19.69s-8.57,19.75-20.87,19.75Zm27.91-19.75c0-6.92-4.26-12.3-12.3-12.3h-7.22v24.66h7.16c7.81,0,12.36-5.62,12.36-12.36"/><path class="cls-9" d="M358.43,327.38V303.73h8.51v23.41c0,5.5,3.19,9.29,9.29,9.29s9.22-3.79,9.22-9.29V303.73H394v23.65c0,9.76-5.8,16.5-17.8,16.5s-17.8-6.74-17.8-16.5"/><polygon class="cls-9" points="426.13 343.17 426.13 311.12 414.6 311.12 414.6 303.73 446.06 303.73 446.06 311.12 434.59 311.12 434.59 343.17 426.13 343.17"/><path class="cls-9" d="M448.13,323.48c0-11.89,8.7-20.4,20.64-20.4s20.58,8.51,20.58,20.4-8.69,20.4-20.58,20.4-20.64-8.52-20.64-20.4m32.59,0c0-7.39-4.67-13-12-13s-12,5.56-12,13,4.67,12.95,12,12.95,12-5.62,12-12.95"/><path class="cls-9" d="M495.26,327.38V303.73h8.52v23.41c0,5.5,3.19,9.29,9.29,9.29s9.22-3.79,9.22-9.29V303.73h8.57v23.65c0,9.76-5.79,16.5-17.79,16.5s-17.81-6.74-17.81-16.5"/><path class="cls-9" d="M561,343.17l-7.74-14h-6.15v14h-8.4V303.73h18.45c8.22,0,13.31,5.38,13.31,12.71,0,6.92-4.44,10.7-8.7,11.71l8.93,15Zm.83-26.79c0-3.25-2.54-5.26-5.85-5.26h-8.87v10.64h8.87c3.31,0,5.85-2,5.85-5.38"/><rect class="cls-9" x="576.69" y="303.73" width="8.4" height="39.44"/><path class="cls-9" d="M590.18,337.61l4.61-6.56a17.35,17.35,0,0,0,12.54,5.38c4.67,0,6.86-2.07,6.86-4.38,0-6.86-22.71-2.07-22.71-16.91,0-6.56,5.67-12,15-12,6.27,0,11.47,1.89,15.37,5.5l-4.67,6.26a17,17,0,0,0-11.47-4.31c-3.55,0-5.56,1.53-5.56,3.9,0,6.21,22.65,2,22.65,16.73,0,7.22-5.2,12.66-15.79,12.66-7.63,0-13.07-2.54-16.79-6.27"/><polygon class="cls-9" points="662.68 343.17 662.68 314.73 651.56 343.17 647.89 343.17 636.77 314.73 636.77 343.17 628.38 343.17 628.38 303.73 640.14 303.73 649.73 328.39 659.3 303.73 671.13 303.73 671.13 343.17 662.68 343.17"/><polygon class="cls-9" points="678.94 343.17 678.94 303.73 706.85 303.73 706.85 311.12 687.33 311.12 687.33 319.4 706.44 319.4 706.44 326.79 687.33 326.79 687.33 335.78 706.85 335.78 706.85 343.17 678.94 343.17"/></svg>