<svg xmlns="http://www.w3.org/2000/svg" xmlns:xlink="http://www.w3.org/1999/xlink" viewBox="0 0 1275.59 1275.59"><defs><style>.cls-1{fill:#241914;}.cls-2{fill:#fff;}.cls-3{fill:#301b13;}.cls-4{fill:#194024;}.cls-5{fill:#1d71b8;}.cls-6{fill:#009fe3;}.cls-7{fill:#ffe000;}.cls-8{fill:#e30613;}.cls-9{fill:url(#linear-gradient);}</style><linearGradient id="linear-gradient" x1="691.63" y1="597.58" x2="688.75" y2="470.93" gradientUnits="userSpaceOnUse"><stop offset="0" stop-color="#432918"/><stop offset="1" stop-color="#432918" stop-opacity="0"/></linearGradient></defs><title>LOGO ONT REDESIGN VECTORIEL 2</title><g id="Layer_3" data-name="Layer 3"><path class="cls-1" d="M1084.92,234.37s-15.36,37-27.36,54.72-32,12-38.4,12.48-3.36,7.2-3.36,16.32.48,29.28,0,41.28-3.84,21.6-9.12,38.88-15.36,26.4-13.92,32.64,0,22.56-3.84,34.56c-2.53,7.89-9.37,14.43-16,19.09-2.2,1.56-5.2,3.9-8,4.26-4.21.55-9.28-1.75-12.46-4.33a27.64,27.64,0,0,1-6.19-7.41c-.51-.84-1-1.71-1.42-2.59-3.25-6.45-7-11.06-8.43-18.43a72.45,72.45,0,0,1-1.32-13.63l-26.91,23.41c-2.14-8-4.75-16.21-6.68-22.1,1.82,7.91,2.43,17.8,2.59,25.66l-3.07,2.68c-7.25-22.11-21.31-45.13-22.18-46.54.19.41,1.43,3,9.37,19.39,4.43,9.15,7.41,20.28,9.33,29.51l-1.78-.44c-112.08-28.87-92.67-144.37-92.67-144.37s29.28-9.12,43.68-14.4,37.92-18.24,37.92-18.24c-5.28-2.4-8.16-13.92-12-21.12S879,221.41,879,221.41h13.44c20.64,2.4,38.88,13,42.72,23s7.68,14.4,13,14.4,38.88.48,52.8.48,15.84-19.68,30.72-28.32S1084.92,234.37,1084.92,234.37Z"/><path class="cls-2" d="M937.38,443c2.13,4.81.52,10.63-.11,16,1.75,5.65,4.87,9.81,7.64,15.28.44.88.91,1.75,1.42,2.6a27.59,27.59,0,0,0,6.19,7.4c3.18,2.58,8.25,4.88,12.46,4.34,2.77-.36,5.77-2.71,8-4.26,6.6-4.67,13.44-11.2,16-19.1,3.84-12,5.28-28.32,3.84-34.56s8.64-15.36,13.92-32.64,8.64-26.88,9.12-38.88,0-32.16,0-41.28-3.06-15.84,3.36-16.32,26.4,5.28,38.4-12.48,27.36-54.72,27.36-54.72-38.4-12-53.28-3.36-16.8,28.32-30.72,28.32-47.52-.48-52.8-.48-9.12-4.32-13-14.4-22.08-20.64-42.72-23H879s-10.08,47-6.24,54.24,6.72,18.72,12,21.12c0,0,13,6.72,23.52,6.24s10.56,6.72,16.8,10.08l6.24,3.36s-9.6,14.88-7.68,28.32,1.44,50.4,3.84,62.4,9.29,20.18,10.65,25.69S934.32,436.12,937.38,443Z"/><path class="cls-2" d="M887,243c-.33-.31-.67-.62-1-1-1.27-1.3-3-1,1.46,1.52-.06-.1,0-.05.22.12l.06,0-.22-.21-1.08-.7C886.29,242.69,886.55,242.79,887,243Z"/><path d="M979.12,479a11.18,11.18,0,0,0,3-2.68,25,25,0,0,0,2.22-3.42,30.66,30.66,0,0,1,4.5-6.88l-.08.19,0-3v-.09l.05-.08a22.52,22.52,0,0,0,3.06-7.78,37.58,37.58,0,0,0,.48-8.42c-.1-2.83-.35-5.68-.37-8.56a30.77,30.77,0,0,1,1-8.67,27.38,27.38,0,0,1,1.55-4.11l1.72-3.9,3.43-7.83c2.26-5.23,4.46-10.48,6.45-15.8s3.8-10.69,5.27-16.16a135.41,135.41,0,0,0,3.38-16.56c1.12-11.19.29-22.57-.29-34-.29-5.71-.49-11.45-.33-17.21,0-1.44.13-2.88.19-4.32l.18-2.17a17.32,17.32,0,0,1,.25-2.29,7.12,7.12,0,0,1,1-2.48,6.07,6.07,0,0,1,2-1.9,10.33,10.33,0,0,1,4.81-1.16,63.14,63.14,0,0,1,8.73.77c.69.08,1.37.14,2,.18a13,13,0,0,0,1.94-.09c.66,0,1.34-.15,2-.25s1.34-.23,2-.38a33.58,33.58,0,0,0,14.55-7.21,46.31,46.31,0,0,0,10.35-12.87,72.32,72.32,0,0,0,6.4-15.49c1.61-5.4,2.82-11,4.09-16.52a41.94,41.94,0,0,0,1.23-8.19,13,13,0,0,0-1.77-7.49l1.15.54a21.59,21.59,0,0,1-7-.47,66.17,66.17,0,0,1-6.48-2,40.37,40.37,0,0,0-6.27-1.68,38.64,38.64,0,0,0-6.45-.55,41.88,41.88,0,0,0-12.82,2,26.42,26.42,0,0,0-10.85,6.81,54,54,0,0,0-7.89,10.48c-1.16,1.89-2.33,3.81-3.69,5.61a19,19,0,0,1-4.91,4.68,13.38,13.38,0,0,1-3.12,1.44c-.55.14-1.11.28-1.67.38s-1.12.17-1.69.17a43.79,43.79,0,0,1-6.69-.38,27.54,27.54,0,0,0-6.6-.15,10.27,10.27,0,0,0-5.91,2.74,10.39,10.39,0,0,1,5.87-3,27.65,27.65,0,0,1,6.68-.09,43.11,43.11,0,0,0,6.61.2,14.78,14.78,0,0,0,1.61-.21c.53-.1,1-.25,1.57-.4a12.86,12.86,0,0,0,2.88-1.42,18.21,18.21,0,0,0,4.55-4.59c1.27-1.77,2.37-3.69,3.48-5.61a54,54,0,0,1,7.82-11,31.38,31.38,0,0,1,5.22-4.39,27.09,27.09,0,0,1,6.17-3,43.42,43.42,0,0,1,13.36-2.32,41,41,0,0,1,6.81.47,43.46,43.46,0,0,1,6.61,1.65,60.53,60.53,0,0,0,6.29,1.81,18.71,18.71,0,0,0,6.23.32l.74-.08.42.62a15.36,15.36,0,0,1,2.28,8.87,44.18,44.18,0,0,1-1.24,8.7c-1.25,5.57-2.43,11.17-4,16.72a75.07,75.07,0,0,1-6.55,16.1,60.28,60.28,0,0,1-4.82,7.31,42.79,42.79,0,0,1-6.1,6.38,36.6,36.6,0,0,1-15.76,7.92c-.73.16-1.45.32-2.19.41s-1.47.24-2.23.29a14.57,14.57,0,0,1-2.33.11c-.76,0-1.5-.11-2.23-.2a61.76,61.76,0,0,0-8.29-.79,7.61,7.61,0,0,0-3.45.74,3.47,3.47,0,0,0-1.66,2.44c-.11.49-.14,1.3-.21,2l-.18,2.1c-.07,1.4-.16,2.81-.21,4.22-.18,5.64,0,11.31.23,17,.52,11.37,1.32,22.85.1,34.4-1.59,11.49-5.06,22.52-9.25,33.18-2.1,5.33-4.39,10.57-6.75,15.77l-3.56,7.79-1.8,3.89a26.94,26.94,0,0,0-1.53,3.86,31,31,0,0,0-1.13,8.24c-.06,2.82.11,5.67.14,8.54a38.94,38.94,0,0,1-.73,8.61,23.11,23.11,0,0,1-3.38,8l.06-.18,0,3v.12l-.08.08a32.15,32.15,0,0,0-4.65,6.64,23.86,23.86,0,0,1-2.36,3.36A11.26,11.26,0,0,1,979.12,479Z"/><path d="M992.52,358.69a12.13,12.13,0,0,1,2.19-1.33c1.68-1.08,3.31-2.22,4.89-3.44a34.26,34.26,0,0,0,5.18-4.82c1.82-2.17,2.52-3.76,1.81-6.64a.45.45,0,0,0-.11-.23c-.16-.15-.41,0-.58.12-.77.59-1.74.82-2.5,1.37a16.67,16.67,0,0,0-2.1,2.18l-4.12,4.29-4.66,4.86Z"/><polygon points="945.48 357.01 932.76 342.13 937.8 342.13 947.4 352.69 945.24 358.69 945.48 357.01"/><polygon points="941.88 362.77 941.88 367.81 932.76 371.41 931.08 365.65 934.44 364.45 929.64 355.05 930.84 350.41 941.88 362.77"/><path class="cls-1" d="M1016,304.74c-1.51,2.2.53,6-1,8.43a6,6,0,0,0-.71,1.19,3.29,3.29,0,0,0,0,1.53l.54,3.57c-2.76-1.44-3.54-4.92-5-7.64a12.18,12.18,0,0,0-7.79-6c-8.21-1.82-12.35,6.89-13.2,13.76-.6,4.9,3.88,10.33,2.39,14.69-1.35,3.94-7.58,6.36-9.47,10.78-3.24,7.56-7.2,36-7.2,51.84s4.8,30.48,9.6,37.68,8.55,23.36,4.8,30.72S980.4,487,965,488.61s-21.31-13.37-24.9-23.07-4.92-23.33-4.92-23.33,3.12-16.56,12.24-20.16,17.76-9.52,17-31.76-8.88-21-13-29.31,6.24-41.17-4.08-51.25c-3.74-3.65-17.34-13.08-23-8.86-1.3,1-1.32,2.85-1.41,4.47s-.7,3.57-2.3,3.83a4,4,0,0,1-2.76-1c-1.82-1.23-6.26-.42-8.27-1.3-7.6-3.32-14.19-3.84-21.49-7.79-8.45-4.58-14.37-18.84-16.2-27.8-3.74-18.37,9.6-37,4.09-54.93L898.94,220a52.26,52.26,0,0,1,8.43,1.81,42.28,42.28,0,0,1,7.2,3.33,113.24,113.24,0,0,1,10.65,6.7c8.65,6.14,12.67,16.76,18.17,25.64,0,0,35,1.76,44.57,1.82s20.76-2.53,20.76-2.53c4.58-9,12-20.77,21.33-25.31,14.19-6.93,30-2.67,45.19-2.25a3.31,3.31,0,0,1,1.68.36,2.91,2.91,0,0,1,.84,1c2.63,4.4,2.18,9.94,1.29,15-2.63,15-9.66,29.28-18.12,42a32.79,32.79,0,0,1-15.84,12.4c-7.76,3-18.73,1.36-26.6,3.42a5,5,0,0,0-2.07,1A2.66,2.66,0,0,0,1016,304.74Z"/><path class="cls-2" d="M947.4,411a74.12,74.12,0,0,1-7.32-16.32,128.47,128.47,0,0,0-4.32-12.48l4.32-1.92,7.32,6.24Z"/><path class="cls-1" d="M1004.29,372.19c2-1.26,6.37-14.71,7.49-17.12a109.86,109.86,0,0,1-9.91,5.91c-3.36,1.71-11.27,8.45-3.69,11.11a13,13,0,0,0,5.87.19A.59.59,0,0,0,1004.29,372.19Z"/><path d="M995.76,366.25a20.52,20.52,0,0,0,3.52-3.15,35,35,0,0,1,3.08-4.09,17.72,17.72,0,0,1,4.86-3.05c.24-.12,1.49-.52,1.5-.91C1008.71,355.29,1008.26,370.18,995.76,366.25Z"/><path class="cls-2" d="M937.35,463.63s.54,4.14,6.3,4a23.07,23.07,0,0,1,10.08,2l-1.08,2.16s-7.74-1.08-9.18,0,2.7,7,3.6,8.82C947.07,480.55,936.63,467.41,937.35,463.63Z"/><rect class="cls-1" x="733.85" y="500.51" width="162.93" height="45.47"/><rect class="cls-1" x="784.65" y="524.78" width="52.26" height="133.8"/><path class="cls-1" d="M400.56,695.37c0-8.08,5.49-14.15,13.57-14.15s13.61,6.07,13.61,14.15-5.53,14.14-13.61,14.14S400.56,703.44,400.56,695.37Zm23.66,0c0-6.4-4-11.11-10.09-11.11s-10.05,4.71-10.05,11.11,3.9,11.11,10.05,11.11S424.22,701.72,424.22,695.37Z"/><path class="cls-1" d="M433.77,709v-17.1h-3.28v-2.7h3.28V687.7c0-4.06,2.25-6.44,5.74-6.44a5.69,5.69,0,0,1,4.18,1.52l-1.27,2a3.54,3.54,0,0,0-2.42-.94c-2.05,0-3.16,1.35-3.16,3.89v1.52h4v2.7h-4V709Zm11.64,0v-17.1h-3.28v-2.7h3.28V687.7c0-4.1,2.34-6.44,5.74-6.44a6.3,6.3,0,0,1,3,.66l-.78,2.34a3.29,3.29,0,0,0-1.77-.45c-2.05,0-3.15,1.35-3.15,3.89v1.52h4v2.7h-4V709Zm10.21-24.68a2.1,2.1,0,0,1,2.09-2.09,2.06,2.06,0,0,1,2.05,2.09,2,2,0,0,1-2.05,2A2.06,2.06,0,0,1,455.62,684.34Zm.53,24.68v-19.8h3.08V709Z"/><path class="cls-1" d="M464.23,699.1c0-5.87,4-10.38,9.88-10.38a8.48,8.48,0,0,1,7.26,3.45L479.32,694a5.83,5.83,0,0,0-5-2.54c-4.19,0-6.85,3.24-6.85,7.63s2.66,7.67,6.85,7.67a6,6,0,0,0,5-2.59l2.05,1.89a8.48,8.48,0,0,1-7.26,3.44C468.21,709.51,464.23,705,464.23,699.1Z"/><path class="cls-1" d="M484.57,699.1c0-5.74,4.1-10.38,9.75-10.38,6,0,9.52,4.68,9.52,10.62v.78h-16a6.94,6.94,0,0,0,7.09,6.85,8.61,8.61,0,0,0,6.15-2.54l1.48,2a11,11,0,0,1-7.88,3.07C488.79,709.51,484.57,705.29,484.57,699.1Zm9.71-7.83c-4.22,0-6.31,3.56-6.47,6.56h13A6.41,6.41,0,0,0,494.28,691.27Z"/><path class="cls-1" d="M538.89,709l-15.95-21.81V709h-3.4V681.67H523L538.77,703V681.67h3.4V709Z"/><path class="cls-1" d="M560.83,709v-2.25a8.52,8.52,0,0,1-6.56,2.74c-3.33,0-6.89-2.25-6.89-6.56,0-4.47,3.52-6.52,6.89-6.52a8.38,8.38,0,0,1,6.56,2.67v-3.57c0-2.62-2.14-4.14-5-4.14a7.72,7.72,0,0,0-6.06,2.75L548.32,692a10.34,10.34,0,0,1,7.91-3.29c4.23,0,7.67,1.89,7.67,6.69V709Zm0-4.18v-3.77a6.7,6.7,0,0,0-5.42-2.42c-2.91,0-4.92,1.8-4.92,4.3s2,4.35,4.92,4.35A6.61,6.61,0,0,0,560.83,704.84Z"/><path class="cls-1" d="M570.71,704.88v-13h-3.28v-2.7h3.28v-5.41h3.11v5.41h4v2.7h-4v12.3c0,1.48.66,2.55,2,2.55a2.92,2.92,0,0,0,2.09-.87l.9,2.34a5,5,0,0,1-3.65,1.27C572.18,709.51,570.71,707.83,570.71,704.88Z"/><path class="cls-1" d="M581.61,684.34a2.1,2.1,0,0,1,2.09-2.09,2.06,2.06,0,0,1,2,2.09,2,2,0,0,1-2,2A2.07,2.07,0,0,1,581.61,684.34Zm.53,24.68v-19.8h3.08V709Z"/><path class="cls-1" d="M590.22,699.1c0-5.74,3.77-10.38,9.8-10.38s9.8,4.64,9.8,10.38-3.77,10.41-9.8,10.41S590.22,704.84,590.22,699.1Zm16.36,0c0-4-2.34-7.63-6.56-7.63s-6.56,3.61-6.56,7.63,2.34,7.67,6.56,7.67S606.58,703.16,606.58,699.1Z"/><path class="cls-1" d="M628.23,709v-13c0-3.52-1.81-4.59-4.47-4.59a7.71,7.71,0,0,0-5.86,3.08V709h-3.08v-19.8h3.08v2.87a9.69,9.69,0,0,1,7.09-3.37c4.1,0,6.27,2.1,6.27,6.4V709Z"/><path class="cls-1" d="M649.83,709v-2.25a8.49,8.49,0,0,1-6.56,2.74c-3.32,0-6.88-2.25-6.88-6.56,0-4.47,3.52-6.52,6.88-6.52a8.35,8.35,0,0,1,6.56,2.67v-3.57c0-2.62-2.13-4.14-5-4.14a7.7,7.7,0,0,0-6.06,2.75L637.33,692a10.34,10.34,0,0,1,7.91-3.29c4.23,0,7.67,1.89,7.67,6.69V709Zm0-4.18v-3.77a6.66,6.66,0,0,0-5.41-2.42c-2.91,0-4.92,1.8-4.92,4.3s2,4.35,4.92,4.35A6.58,6.58,0,0,0,649.83,704.84Z"/><path class="cls-1" d="M659.1,709V681.67h3.08V709Z"/><path class="cls-1" d="M693.29,709v-2.95a8.31,8.31,0,0,1-6.68,3.44c-5.17,0-8.81-3.93-8.81-10.37s3.64-10.42,8.81-10.42a8.28,8.28,0,0,1,6.68,3.49V681.67h3.08V709Zm0-5.41v-8.94a7.35,7.35,0,0,0-5.9-3.2c-4,0-6.4,3.28-6.4,7.67s2.38,7.63,6.4,7.63A7.31,7.31,0,0,0,693.29,703.61Z"/><path class="cls-1" d="M715.88,709v-2.79a9.68,9.68,0,0,1-7,3.28c-4.14,0-6.31-2-6.31-6.31v-14h3.07v13c0,3.48,1.77,4.51,4.47,4.51a7.54,7.54,0,0,0,5.82-3V689.22H719V709Z"/><path class="cls-1" d="M742.62,709V684.71H734v-3h20.74v3H746V709Z"/><path class="cls-1" d="M753.23,699.1c0-5.74,3.78-10.38,9.8-10.38s9.8,4.64,9.8,10.38-3.77,10.41-9.8,10.41S753.23,704.84,753.23,699.1Zm16.36,0c0-4-2.33-7.63-6.56-7.63s-6.56,3.61-6.56,7.63,2.34,7.67,6.56,7.67S769.59,703.16,769.59,699.1Z"/><path class="cls-1" d="M791.2,709v-2.79a9.7,9.7,0,0,1-7.05,3.28c-4.14,0-6.32-2-6.32-6.31v-14h3.08v13c0,3.48,1.76,4.51,4.47,4.51a7.56,7.56,0,0,0,5.82-3V689.22h3.08V709Z"/><path class="cls-1" d="M800.43,709v-19.8h3.07v3.15a8.52,8.52,0,0,1,6.6-3.6v3.15a10.46,10.46,0,0,0-1.19-.08A7.26,7.26,0,0,0,803.5,695v14Z"/><path class="cls-1" d="M813.42,684.34a2.1,2.1,0,0,1,2.09-2.09,2.06,2.06,0,0,1,2,2.09,2,2,0,0,1-2,2A2.06,2.06,0,0,1,813.42,684.34ZM814,709v-19.8H817V709Z"/><path class="cls-1" d="M821.5,706.4l1.56-2.22a9,9,0,0,0,6.52,2.83c3,0,4.71-1.43,4.71-3.4,0-4.8-12.26-1.85-12.26-9.19,0-3.11,2.63-5.7,7.34-5.7a9.89,9.89,0,0,1,7.34,2.88l-1.44,2.13a7.61,7.61,0,0,0-5.9-2.5c-2.71,0-4.39,1.35-4.39,3.11,0,4.31,12.26,1.48,12.26,9.19,0,3.32-2.66,6-7.75,6A10.61,10.61,0,0,1,821.5,706.4Z"/><path class="cls-1" d="M866.15,709V695.57c0-2.5-1.07-4.1-3.65-4.1a6.81,6.81,0,0,0-5.25,3V709h-3.07V695.57c0-2.5-1-4.1-3.65-4.1a6.93,6.93,0,0,0-5.21,3.08V709h-3.08v-19.8h3.08v2.87a8.65,8.65,0,0,1,6.44-3.37,5.07,5.07,0,0,1,5.29,3.7,8.31,8.31,0,0,1,6.64-3.7c3.61,0,5.53,2,5.53,6V709Z"/><path class="cls-1" d="M874.22,699.1c0-5.74,4.1-10.38,9.76-10.38,6,0,9.51,4.68,9.51,10.62v.78h-16c.25,3.73,2.83,6.85,7.1,6.85a8.63,8.63,0,0,0,6.15-2.54l1.47,2a10.94,10.94,0,0,1-7.87,3.07C878.45,709.51,874.22,705.29,874.22,699.1Zm9.72-7.83c-4.22,0-6.31,3.56-6.48,6.56h13A6.41,6.41,0,0,0,883.94,691.27Z"/><path class="cls-3" d="M647.11,884.09V855.77s17.14-19.68,17.45-22.08l.31-2.4H673l-4.8-4.8s6.48-6.72,4.8-11.28-8.47-11-8.47-11l23.35-18.72-2.4-3.84L663,801.53s-2.64,3.3-.48,6,5.4,7.2,5,9-2.52,6.3-3.78,6.84-7.56,9.72-14,17.46-12.24,13.68-12.42,17.82l-.18,4.14s-8.28-2.52-8.82-4.5-4.32-7.56-9-7.74l-4.68-.18v2.88s9,.18,11.16,4.68,5.22,7.2,8.46,7.56l3.24.36.36,19.26L648.25,884Z"/><path class="cls-3" d="M663,829.37s-3.6-7.68-4.08-11.52.06-5.8,3.6-10.32,6.1-8.88,2.09-11.28-3.15-1.2-1.9-6.72a45.92,45.92,0,0,1,1.9-7h-1.9l-3.94,7.68s-7.05-1-10.89-4.32L644,782.57l-1.44,2.4s7.25,6.72,12,7.44,5.74,4.56,6.22,5.28.48,5.76-2.16,8.28-3.12,10-2.64,11.16-13.68-3.6-16.56-9.12-1.92-8.88,0-13.92l1.92-5-1.92-2.4s-5.76,9.6-5,12.72l.72,3.12a70,70,0,0,0-10.32-10.56c-5.28-4.08-5.28-5.28-5.28-5.28s3.12-3.12,3.36-4.08-1.68-1-1.68-1l-4.56,4.8-9.84-3.84-5.52.24s12.48,5.52,14.4,6.72,1.68,6.24,1.68,6.24a7.2,7.2,0,0,1,8.64,1.44,47.81,47.81,0,0,1,7,8.28l-5.52,1.08,1,2.88s2.16-2.16,7,1.2,14.28,6.48,15.9,9.12,6.47,4.75,3.78,11.28a75.49,75.49,0,0,0-3.78,11.52Z"/><path class="cls-4" d="M572.83,777.29s.71.66,1.9,1.56c3.12,2.38,9.54,6.49,15,4.92,7.56-2.16,17.28-4,20.16-3.06s3.48,2.7,11.28.9,11.4-3.24,15.36,0,8.52,2.15,14.7-.9,10.14,1.6,17,3.41,5.86-4.51,10.44-2.51,3.24,8.64,12.24,6.12-2.52-4,11.16-10.44,21.6-1.44,33.12-4.68c5.94-1.67,12.55-1.24,18.34-3.06,4.09-1.29,7.05-4.32,11.11-5.71-.48-6.09-9.5-5.36-9.86-6.53a5.62,5.62,0,0,1,1.59-5.66l-4.29,0a19.48,19.48,0,0,0-3.38-8.37c-.34,2.74-4.68,3.1-6.49,1s-1.75-5.16-1.6-7.92c-3.76,3.62-8.52,7.15-13.67,6.37s-8.52-8.56-4.11-11.35a64.18,64.18,0,0,1-15.08-5.17l-3.26,9.56a9.86,9.86,0,0,0-10.79-.84,3.62,3.62,0,0,0,1.77-4,17.58,17.58,0,0,0-7.46.54l-.45,4.48c.58-1-.66-2.12-1.76-2a7.2,7.2,0,0,0-2.92,1.52,8.14,8.14,0,0,1-11.58-10.63c-1.16,1.41-2.42,2.89-4.16,3.42s-4.06-.41-4.25-2.22a18.69,18.69,0,0,1-14.88.39,2.8,2.8,0,0,1-2.47,3.36A35.62,35.62,0,0,1,615.11,722a10.2,10.2,0,0,1,3.51,11.27c-1.82,1.35-3.92,2.76-6.16,2.4s-3.76-3.67-1.88-4.94l-9.86.59c-13.18,5.75-25.68,1.59-37.25,10-4,2.88-.72,2.88,3.24,7.92s6.12,12.24-2.52,12.24-9.36-4-13-4.52-5.76,9.92-8.28,7,2.88,4.32,6.12,6.12-4.68,8.64,2.16,9,7.92-6.12,13.68-3.6S572.83,777.29,572.83,777.29Z"/><path class="cls-5" d="M980.9,515.68q-.48-1.68-1-3.36L969.5,516c.27.92.55,1.83.81,2.75q2.07,7.23,3.67,14.57A226.79,226.79,0,0,1,978.71,593a237.85,237.85,0,0,1-10.8,59,267.45,267.45,0,0,1-24.55,54.77,300.88,300.88,0,0,1-35.67,48.3A336.52,336.52,0,0,1,863.5,795.7a367.26,367.26,0,0,1-50.42,32.4,403,403,0,0,1-112.39,39.61,381.68,381.68,0,0,1-118.15,4.15c-39-4.88-76.95-16.08-111.24-33.49s-64.91-40.81-88.75-69.24a234,234,0,0,1-30.3-46l-1.58-3c-.49-1-.93-2.09-1.39-3.13l-2.77-6.25c-.45-1-1-2.06-1.35-3.14L344,704.4,341.57,698l-.6-1.6-.51-1.63-1-3.26-2-6.52c-1.16-4.4-2.17-8.85-3.3-13.26a218.61,218.61,0,0,1-4.68-54.32c.26-4.56.36-9.13,1-13.68l.7-6.84c.08-1.14.32-2.27.49-3.4l.56-3.4,1.1-6.81,1.49-6.76.72-3.38c.25-1.13.45-2.27.79-3.37l1.84-6.7c10-35.71,28.18-69.71,52.21-99.65S444.2,407.54,477.67,387a381.08,381.08,0,0,1,109.24-45.08,399.74,399.74,0,0,1,118.67-10.4,373.37,373.37,0,0,1,41.73,5.09L758,319.5a390.91,390.91,0,0,0-50.54-9,423.43,423.43,0,0,0-126.16,5.34,448.75,448.75,0,0,0-120.19,41.77c-38,19.71-73.37,45.57-103.3,77.52a322.64,322.64,0,0,0-40,52.45,287.93,287.93,0,0,0-28.07,60.72l-2.56,8.05c-.45,1.34-.77,2.72-1.13,4.08l-1.06,4.1-2.09,8.22-1.62,8.34-.8,4.17c-.25,1.4-.57,2.78-.73,4.19l-1.13,8.45c-.89,5.61-1.13,11.31-1.54,17A253.85,253.85,0,0,0,282.33,683c1.4,5.53,2.72,11.08,4.23,16.58l2.59,8.16,1.3,4.08.66,2,.76,2,3.11,8,1.57,4c.5,1.34,1.17,2.6,1.75,3.91l3.6,7.75c.61,1.29,1.19,2.59,1.82,3.87l2,3.76a264.45,264.45,0,0,0,39.1,55.34A289,289,0,0,0,395.5,846a322.93,322.93,0,0,0,58.06,31.2c40.44,16.71,83.3,25.64,126,27.89a448.58,448.58,0,0,0,126.67-11.62,426.42,426.42,0,0,0,117.05-47.25,386,386,0,0,0,51.5-36.46,358.23,358.23,0,0,0,44.56-44.51,321.75,321.75,0,0,0,35.67-51.8,286.65,286.65,0,0,0,24.36-57.94,260.43,260.43,0,0,0,10.5-61.95,244.79,244.79,0,0,0-5.2-62.62Q983,523.26,980.9,515.68Z"/><path class="cls-6" d="M984.71,531q-1.66-7.69-3.81-15.27-.48-1.68-1-3.36L969.5,516c.27.92.55,1.83.81,2.75q2.07,7.23,3.67,14.57A226.79,226.79,0,0,1,978.71,593a237.85,237.85,0,0,1-10.8,59,267.45,267.45,0,0,1-24.55,54.77,300.88,300.88,0,0,1-35.67,48.3A336.52,336.52,0,0,1,863.5,795.7a367.26,367.26,0,0,1-50.42,32.4,403,403,0,0,1-112.39,39.61,381.68,381.68,0,0,1-118.15,4.15,345.67,345.67,0,0,1-89.11-23.33,118.87,118.87,0,0,1-4.53,14.29c-3.12,8.06-6.72,15.86-10.44,23.6A389.32,389.32,0,0,0,579.6,905.1a448.58,448.58,0,0,0,126.67-11.62,426.42,426.42,0,0,0,117.05-47.25,386,386,0,0,0,51.5-36.46,358.23,358.23,0,0,0,44.56-44.51,321.75,321.75,0,0,0,35.67-51.8,286.65,286.65,0,0,0,24.36-57.94,260.43,260.43,0,0,0,10.5-61.95A244.79,244.79,0,0,0,984.71,531Z"/><circle class="cls-7" cx="442.37" cy="378.83" r="51.06"/><circle class="cls-8" cx="461.35" cy="855.14" r="71.75"/><path class="cls-1" d="M639.7,599.38c-1.27-.94-2.5-2-3.71-3a90.78,90.78,0,0,1-9.64-9.27l-.35-.4a20.15,20.15,0,0,1-.39,6.29,40.22,40.22,0,0,0-1.29,5.81c-.14,1.83,0,3.54-.22,5.39,0,.26-.05.51-.07.77-.39,4.16-.56,8.35-.85,12.52-4.18-1.57-5.31,1.36-7.47,4.14-5.6,7.2-12,13.78-18.11,20.57-3,3.33-6.15,6.53-9.16,9.86-3.54,3.91-9.86,6.43-13.35,4.64a10.16,10.16,0,0,1-3.4-2.77v-23.1a7.17,7.17,0,0,1,2.88,1.22c1.78,1.11,3.76,2.32,4.84,4s1,3.93,1.52,6.14a9,9,0,0,0,1-14.84,29.77,29.77,0,0,0-8.32-4.36,9.31,9.31,0,0,1-1.87-.93V611.59a11.82,11.82,0,0,1,3.79.06c6.77.53,13.51,1.41,20.28,1.69,2.29.1,4.64-1.2,7-1.86-1.36-2-2.35-5.36-4.15-5.89-6.16-1.81-12.6-2.72-19-3.79-2.28-.38-4.71,0-7-.48a2.67,2.67,0,0,1-1-.48V597a2.61,2.61,0,0,1,1.21-.51c6.3-.55,12.62-.78,18.94-1.11,1.66-.09,3.42.19,4.95-.28,1.23-.38,2.19-1.64,3.27-2.5-1-1-1.83-2.66-2.92-2.82-4.76-.68-9.57-1-14.38-1.26-3.15-.13-6.34.45-9.47.19a3.25,3.25,0,0,1-1.6-.68v-4.09a3.11,3.11,0,0,1,1.39-.85c6.46-1.54,13.06-2.5,19.51-4.05,2.78-.66,5.32-2.26,8-3.43,0-.71-.06-1.41-.1-2.12-2.84-.36-5.73-1.26-8.5-1-5.28.55-10.46,2-15.73,2.67a13.8,13.8,0,0,1-4.54.05V552.41A19.46,19.46,0,0,1,577,551a40.23,40.23,0,0,0,4.48-1.33c0-.51.11-1,.16-1.52a36.4,36.4,0,0,0-5-1.74,18.13,18.13,0,0,1-5-1.51V503a6.5,6.5,0,0,1,2.41-.37q23.24.24,46.47.36c3.93,0,6.2,1.53,8.08,5.2q4.54,8.85,9.19,17.64c-.94,8.69-1.37,17.44-1.5,26C636.11,567.9,637.81,583.6,639.7,599.38Z"/><rect class="cls-1" x="665.37" y="500.51" width="51.69" height="157.07"/><rect class="cls-9" x="665.37" y="500.51" width="51.69" height="157.07"/><path class="cls-3" d="M624,593.05v65.16H571.69V638.05c2.66,2.78,6.52,6,9.5,5.4,5-1.08,11.88-6.84,9-13.32s-1.8-8.28-1.8-8.28l13.32-2.52s13.32,0,10.08-11.16.51-18,.51-18l9.57-1.8Z"/><path class="cls-1" d="M532,509.92a242.91,242.91,0,0,1-54,14.44c-1.38-2-4.07-2.91-8-2.91q-5.27,0-8.06,2.54a5.93,5.93,0,0,0-1.38,2.32c-6.58.49-13.19.71-19.79.65-7.71-.06-15.56-.47-23,1.61-4.68,1.32-15.54,9.9-25.36,16.14A120.77,120.77,0,0,1,393.83,530q1.83-10.11,11.48-18.48t26.07-12.85q16.41-4.49,38.27-4.49a150.11,150.11,0,0,1,37.22,4.23Q522.22,502.33,532,509.92Z"/><path class="cls-1" d="M445.66,533.56c4.12,0,8.75-.23,13.67-.61-.09,1-.14,2.15-.18,3.34-10,.31-19.17.31-25.88.31-15.4,0-33.66,8.77-34.78,9.32C427.66,529.36,427.2,533.56,445.66,533.56Z"/><path class="cls-1" d="M544.16,525.28c-8.3,1.42-25.92,4.44-42.63,7.34-6.75,1.17-14.06,2-21.43,2.58-.06-1.69-.17-3.19-.31-4.52,11.27-1.55,22.29-3.5,30.62-5.3,10.16-2.21,20.33-7,27-10.54A31.42,31.42,0,0,1,544.16,525.28Z"/><path class="cls-1" d="M423.92,542.21c4.57-.25,18.52-1.17,35.2-2.29v10c-20.9.65-43.13.09-52.5,2.85-6.29,1.85-11.26,3.24-14.58,4.14,0-.43,0-.85,0-1.27C400.3,551.21,417.3,542.56,423.92,542.21Z"/><path class="cls-1" d="M546.9,544.77c-12.28.57-46,2.23-66.73,3.84V538.49l27.67-1.89c20.09-1.38,32.05-3.33,38-4.54Q546.52,537.06,546.9,544.77Z"/><path class="cls-1" d="M430.46,558.1c6.3,0,16.72-.36,28.66-.88v6.47l-5.15.12-1.9,0-2.38,0-1.92,0-4,.08-2.75,0-1.53,0h-.7l-1.44,0-5,.08h-.7l-1.94,0h-1l-3.17,0,33.69.64V575c-13.07-.1-24.53-.37-31.93-.88-17-1.19-28.46-3.38-35.19-5.07v-4.59C401.14,561.9,417,558.1,430.46,558.1Z"/><path class="cls-1" d="M486.45,562.9l-6.28.21v-6.89c21.38-1.08,42.9-2.31,52.45-2.79,6.92-.35,11.51-.44,14.55-.41q.12,4.41.12,9.45C536.87,562.33,509.26,562.06,486.45,562.9Z"/><path class="cls-1" d="M547.3,566.61v7.65c-13,.25-40.71.71-67.13.78v-9.7Z"/><path class="cls-1" d="M448.23,581.48c3.33-.45,7-.82,10.89-1.12V589c-22.56,2-39,0-53.67-1.21-6.61-.54-10.79-1.63-13.45-2.75v-3.28C403.08,582.4,431.79,583.71,448.23,581.48Z"/><path class="cls-1" d="M547.3,579v8.31c-14-.76-44.82-2.08-67.13-.57v-7.44c14.77-.41,29.44-.3,38.54-.3Z"/><path class="cls-1" d="M451.73,596.56c2.23-.25,4.71-.47,7.39-.67v5.8c-12.34,1.13-26.71,2.25-37.19,1.88-16.05-.57-23.13.26-29.89-5.17,0-1.35,0-2.75,0-4.18C404,595.39,436.46,598.25,451.73,596.56Z"/><path class="cls-1" d="M547.29,593.55q0,4-.07,7.63c-19.47-.49-58.28-1.47-64.28-1.47-.73,0-1.66,0-2.77.11v-5c17.26-.61,36.94-.82,52.57-1C539,593.67,543.72,593.61,547.29,593.55Z"/><path class="cls-1" d="M459.12,614.31c0,1.76,0,3.39.07,4.89-25.75,1.08-54.89.7-66.8-7.73-.07-1.54-.14-3.16-.19-4.85a194.34,194.34,0,0,0,55,5q6-.32,11.94-.77Z"/><path class="cls-1" d="M547,608.42c-.13,4-.34,7.42-.6,10.43a429.06,429.06,0,0,0-50.85-1.6c-4.2.16-9.49.48-15.47.85,0-1.54.07-3.2.07-5v-4.2c20.93-2.18,38.52-4.53,47.66-3.6A193.92,193.92,0,0,1,547,608.42Z"/><path class="cls-1" d="M545.41,626.63h0a29.94,29.94,0,0,1-8.1,15.06C515.11,641,481.7,640,460.55,640c-24.48,0-51.64-4.92-64.91-7.67a25,25,0,0,1-1.73-5.51c-.16-.81-.31-1.69-.44-2.66l5,1.27c14.38,3.67,32.62,1.95,50.15.37,3.33-.3,7-.61,10.93-.89.3,3.28.79,5.51,1.45,6.69,1.22,2.19,4.06,3.3,8.53,3.3s7.49-1.27,8.77-3.79c.7-1.39,1.2-3.83,1.53-7.33a365.71,365.71,0,0,1,38.22.44C531.61,625.2,540.29,626,545.41,626.63Z"/><path class="cls-1" d="M528.4,649.06a73.84,73.84,0,0,1-20.49,8.69q-16.43,4.49-38.26,4.49A149.7,149.7,0,0,1,432.42,658q-16.51-4.23-26.55-12.7a46.27,46.27,0,0,1-4.94-4.82c13.64,2.84,40.9,8,59.62,8C482.18,648.45,513.4,649.68,528.4,649.06Z"/><path class="cls-2" d="M885.44,227s-8.16,30-6.72,38,3,18.58,10.63,25.3l7.61,6.72s-16.32-25.44-11.52-47.52S885.44,227,885.44,227Z"/><path class="cls-2" d="M912.49,234.91s10.8,4.32,8.64,18.72-6.63,28.8.28,31,14.33-9.36,11.35-24.84S928.33,241.39,912.49,234.91Z"/><path class="cls-2" d="M1016.41,258.67s10.08-20.64,21.6-24.24l11.52-3.6s-20.4,6.48-28.08,23.28S1016.41,258.67,1016.41,258.67Z"/><path class="cls-2" d="M898.79,435.3a36.76,36.76,0,0,1,2.78,8.22C900,438.82,898.9,435.62,898.79,435.3Z"/><polygon class="cls-1" points="717.05 657.58 661.58 657.58 578.54 502.54 624.89 502.54 717.05 657.58"/><path class="cls-6" d="M240.8,969.76c0-18.68,13.66-32.06,32.43-32.06s32.33,13.38,32.33,32.06-13.66,32-32.33,32S240.8,988.43,240.8,969.76Zm51.2,0c0-11.61-7.34-20.35-18.77-20.35s-18.86,8.74-18.86,20.35,7.34,20.35,18.86,20.35S292,981.28,292,969.76Z"/><path class="cls-6" d="M314.85,1000.7v-62h43.86v11.61H328v13h30V975H328v25.74Z"/><path class="cls-6" d="M367.9,1000.7v-62h43.86v11.61H381.1v13h30V975h-30v25.74Z"/><path class="cls-6" d="M421,1000.7v-62h13.2v62Z"/><path class="cls-6" d="M443.44,969.76c0-19.14,14.4-32.06,33.07-32.06,13.57,0,21.46,7.35,25.83,15.15L491,958.42a16.78,16.78,0,0,0-14.5-9c-11.33,0-19.51,8.64-19.51,20.35s8.18,20.35,19.51,20.35a16.77,16.77,0,0,0,14.5-9l11.33,5.49c-4.37,7.71-12.26,15.23-25.83,15.23C457.84,1001.81,443.44,988.81,443.44,969.76Z"/><path class="cls-6" d="M510.24,1000.7v-62h43.85v11.61H523.43v13h30V975h-30v14.12h30.66v11.62Z"/><path class="cls-6" d="M631,1000.7l-29.55-40.42v40.42H588.28v-62h13.57l28.71,38.93V938.73h13.19v62Z"/><path class="cls-6" d="M698.84,1000.7l-3.9-10.5H668.37l-3.9,10.5h-15l23.88-62h16.54l23.87,62Zm-17.18-48.78L672,978.59h19.33Z"/><path class="cls-6" d="M727.92,1000.7V950.34H709.81V938.73h49.42v11.61h-18v50.36Z"/><path class="cls-6" d="M767.69,1000.7v-62h13.19v62Z"/><path class="cls-6" d="M790.17,969.76c0-18.68,13.66-32.06,32.43-32.06s32.33,13.38,32.33,32.06-13.66,32-32.33,32S790.17,988.43,790.17,969.76Zm51.19,0c0-11.61-7.34-20.35-18.76-20.35s-18.86,8.74-18.86,20.35,7.34,20.35,18.86,20.35S841.36,981.28,841.36,969.76Z"/><path class="cls-6" d="M907,1000.7l-29.55-40.42v40.42H864.22v-62h13.57l28.7,38.93V938.73h13.2v62Z"/><path class="cls-6" d="M974.78,1000.7l-3.9-10.5H944.31l-3.9,10.5h-15l23.88-62h16.53l23.88,62Zm-17.19-48.78-9.66,26.67h19.33Z"/><path class="cls-6" d="M994.94,1000.7v-62h13.29v50.35h26.2v11.62Z"/><path class="cls-6" d="M321.79,1084.27v-62h24.43c19.42,0,32.89,12.36,32.89,30.94,0,18.77-13.47,31-32.79,31Zm43.85-31c0-10.87-6.69-19.32-19.32-19.32H335v38.74h11.24C358.49,1072.65,365.64,1063.83,365.64,1053.23Z"/><path class="cls-6" d="M388.5,1059.46v-37.17h13.38v36.8c0,8.64,5,14.58,14.58,14.58s14.5-5.94,14.5-14.58v-36.8h13.47v37.17c0,15.33-9.11,25.92-28,25.92S388.5,1074.79,388.5,1059.46Z"/><path class="cls-6" d="M494.88,1084.27v-50.36H476.76v-11.62h49.43v11.62h-18v50.36Z"/><path class="cls-6" d="M529.44,1053.33c0-18.68,13.66-32.06,32.42-32.06s32.34,13.38,32.34,32.06-13.66,32.05-32.34,32.05S529.44,1072,529.44,1053.33Zm51.19,0c0-11.62-7.34-20.35-18.77-20.35S543,1041.71,543,1053.33s7.34,20.34,18.86,20.34S580.63,1064.85,580.63,1053.33Z"/><path class="cls-6" d="M603.49,1059.46v-37.17h13.38v36.8c0,8.64,5,14.58,14.58,14.58s14.5-5.94,14.5-14.58v-36.8h13.47v37.17c0,15.33-9.11,25.92-28,25.92S603.49,1074.79,603.49,1059.46Z"/><path class="cls-6" d="M706.71,1084.27l-12.17-22h-9.66v22h-13.2v-62h29c12.92,0,20.91,8.46,20.91,20,0,10.87-7,16.82-13.66,18.4l14,23.6Zm1.3-42.09c0-5.11-4-8.27-9.2-8.27H684.88v16.72h13.93C704,1050.63,708,1047.47,708,1042.18Z"/><path class="cls-6" d="M731.42,1084.27v-62h13.2v62Z"/><path class="cls-6" d="M752.61,1075.53l7.24-10.31a27.24,27.24,0,0,0,19.7,8.45c7.34,0,10.78-3.25,10.78-6.87,0-10.78-35.68-3.25-35.68-26.57,0-10.32,8.92-18.86,23.51-18.86,9.84,0,18,3,24.15,8.64l-7.34,9.84a26.62,26.62,0,0,0-18-6.78c-5.58,0-8.74,2.42-8.74,6.13,0,9.76,35.59,3.16,35.59,26.3,0,11.33-8.18,19.88-24.81,19.88C767,1085.38,758.46,1081.39,752.61,1075.53Z"/><path class="cls-6" d="M866.51,1084.27v-44.69l-17.46,44.69h-5.76l-17.47-44.69v44.69h-13.2v-62h18.49L846.17,1061l15.05-38.75H879.8v62Z"/><path class="cls-6" d="M892.06,1084.27v-62h43.86v11.62H905.26v13h30v11.61h-30v14.12h30.66v11.62Z"/></g></svg>